<?xml version="1.0" encoding="utf-8"?>
<!-- Generator: Adobe Illustrator 16.0.4, SVG Export Plug-In . SVG Version: 6.00 Build 0)  -->
<!DOCTYPE svg PUBLIC "-//W3C//DTD SVG 1.1//EN" "http://www.w3.org/Graphics/SVG/1.1/DTD/svg11.dtd">
<svg version="1.1" id="Layer_1" xmlns="http://www.w3.org/2000/svg" xmlns:xlink="http://www.w3.org/1999/xlink" x="0px" y="0px"
	 width="748.906px" height="353.048px" viewBox="0 0 748.906 353.048" enable-background="new 0 0 748.906 353.048"
	 xml:space="preserve">
<path display="none" d="M328.803,251.672c-0.587,0.617-5.9,5.674-13.229,6c-3.115,0.145-4.871-1.273-4.871-3.49
	c0-2.764,1.83-6.111,6.447-9.601c3.848-2.729,6.375-3.674,7.438-3.674c1.504,0,1.723,1.455,1.723,1.455s0.221-0.327,0.549-0.327
	c0.11,0,0.404,0.289,0.404,0.546c0,0.217-1.283,1.235-1.613,1.891c-0.549,0.727-0.109,1.271-0.953,1.271
	c-0.33,0-0.842-0.109-0.842-0.473c0-0.581,1.393-2.727,1.393-2.872c0-0.255-0.295-0.363-0.918-0.363
	c-0.475,0-2.674,0.071-7.215,3.781c-4.362,3.564-5.313,6.184-5.461,8c-0.147,1.783,0.916,3.273,4.213,2.982
	c5.644-0.471,10.992-4.146,12.275-5.564C328.803,250.508,329.425,251.018,328.803,251.672"/>
<path display="none" d="M332.575,241.379c0.844-0.728,1.1,0.292,0.844,0.944c-0.258,0.656-2.784,6.476-3.993,8.368
	c-0.515,0.799-1.101,2.727-1.101,2.727s2.492-2.982,4.397-4.328c0.366-0.254,0.769,0,0.659,0.764c-0.074,0.438-0.221,1.236-0.221,2
	c0,0.727,0.146,1.383,0.696,1.527c1.136,0.291,2.785-1.709,3.481-2.291c0.513-0.436,0.732,0.109,0.513,0.363
	c-0.659,0.764-2.271,2.654-3.774,2.727c-1.318,0.074-1.611-1.271-1.611-2.398c0-0.838,0.146-1.527,0.146-1.527
	s-2.675,2.109-4.177,4.217c-0.44,0.619-1.173,0.547-1.209-0.18C327.153,253.271,331.733,242.106,332.575,241.379"/>
<path display="none" d="M338.217,250.836c-0.477,0.691-0.879,2.035-0.77,2.729c0.109,0.615,0.402,0.98,1.355,0.436
	c0.403-0.219,0.879-0.619,1.356-1.055c-0.183-0.254-0.293-0.619-0.257-1.164c0.074-1.49,1.136-3.273,2.308-3.602
	c0.953-0.217,1.503,0.328,1.392,1.057c-0.072,0.873-0.842,2.217-1.978,3.455c0.293,0,0.586-0.074,0.953-0.184
	c1.099-0.291,2.454-1.236,2.894-1.562c0.404-0.221,0.623,0.289,0.33,0.617c-0.439,0.4-2.088,1.455-3.81,1.781
	c-0.367,0.074-0.771,0.146-1.062,0.074c-0.515,0.471-1.138,0.945-1.687,1.271c-0.513,0.256-0.954,0.363-1.283,0.363
	c-0.694,0-1.062-0.471-1.245-1.381c-0.258-1.346,0.623-3.783,1.795-4.436c1.063-0.4,1.356,0.326,1.063,0.545
	C339.133,249.889,338.51,250.436,338.217,250.836 M342.723,249.344c0.074-0.436-0.22-0.545-0.549-0.328
	c-0.513,0.328-1.611,1.93-1.539,2.873c0,0.219,0.073,0.4,0.147,0.51c0.183-0.182,0.401-0.436,0.623-0.689
	C342.322,250.617,342.614,250.072,342.723,249.344"/>
<path display="none" d="M349.319,249.271c-1.613,0-3.297,2.109-3.664,3.201c-0.146,0.436-0.22,0.764-0.22,1.018
	c0,0.51,0.33,0.691,1.099,0.617c1.613-0.217,4.801-1.855,6.081-3.055c0.44-0.398,1.063-0.182,0.515,0.475
	c-0.733,1.053-4.36,3.127-6.814,3.418c-0.734,0.107-1.283-0.109-1.577-0.508c-0.219-0.33-0.438-1.566,0.733-3.494
	c1.209-1.998,2.564-2.654,3.298-2.727C349.319,248.182,349.649,249.271,349.319,249.271"/>
<path display="none" d="M353.643,250.836c-0.478,0.691-0.881,2.035-0.771,2.729c0.109,0.615,0.404,0.98,1.357,0.436
	c0.402-0.219,0.879-0.619,1.354-1.055c-0.183-0.254-0.293-0.619-0.256-1.164c0.073-1.49,1.135-3.273,2.307-3.602
	c0.953-0.217,1.503,0.328,1.394,1.057c-0.073,0.873-0.842,2.217-1.979,3.455c0.293,0,0.586-0.074,0.953-0.184
	c1.099-0.291,2.456-1.236,2.894-1.562c0.404-0.221,0.623,0.289,0.33,0.617c-0.438,0.4-2.088,1.455-3.81,1.781
	c-0.367,0.074-0.769,0.146-1.062,0.074c-0.515,0.471-1.137,0.945-1.687,1.271c-0.513,0.256-0.953,0.363-1.283,0.363
	c-0.694,0-1.062-0.471-1.245-1.381c-0.258-1.346,0.623-3.783,1.797-4.436c1.062-0.4,1.354,0.326,1.062,0.545
	C354.559,249.889,353.936,250.436,353.643,250.836 M358.147,249.344c0.074-0.436-0.22-0.545-0.547-0.328
	c-0.515,0.328-1.613,1.93-1.539,2.873c0,0.219,0.071,0.4,0.146,0.51c0.185-0.182,0.403-0.436,0.623-0.689
	C357.746,250.617,358.039,250.072,358.147,249.344"/>
<path display="none" d="M367.894,239.016c0.66,0,0.988,0.8,0.915,2.001c-0.145,2.072-1.611,4.145-3.773,6.837
	c-1.575,1.965-2.821,3.201-3.407,3.709c-0.074,0.436-0.146,0.801-0.146,1.127c0,0.801,0.364,1.166,1.28,1.018
	c1.797-0.326,3.995-1.963,4.507-2.58c0.551-0.547,1.064-0.184,0.441,0.545c-0.734,0.873-3.444,2.727-5.35,2.943
	c-1.283,0.146-1.648-0.871-1.648-2.035c0-0.545,0.072-1.162,0.182-1.672c0.733-3.963,3.006-8.22,5.24-10.729
	C366.868,239.379,367.454,239.016,367.894,239.016 M366.575,240.907c-1.832,2.327-3.994,6.364-4.764,9.456
	c0.623-0.656,1.614-1.637,3.042-3.564c2.345-3.128,2.931-4.255,3.188-5.782C368.261,239.742,367.638,239.633,366.575,240.907"/>
<path display="none" d="M377.457,251.418c-0.66,0.871-2.858,2.438-3.812,2.654c-0.402,0.109-0.806,0.219-1.135,0.219
	c-0.549,0-0.953-0.256-0.992-1.055c-0.035-0.91,0.443-1.965,0.443-1.965s-2.199,2.584-4.324,3.311
	c-1.173,0.398-1.832-0.074-1.539-1.383c0.366-1.637,2.82-4.4,4.104-4.619c1.281-0.217,1.281,0.764,0.952,0.836
	c-0.294,0-2.564,1.311-3.591,2.691c-0.842,1.164-1.28,2.074,0.221,1.562c1.904-0.836,4.689-4.107,5.092-4.617
	c0.439-0.654,1.173-0.072,0.88,0.545c-0.329,0.729-1.099,2.293-1.282,3.201c-0.184,0.871,0.219,0.836,0.916,0.582
	c1.612-0.619,2.932-1.746,3.371-2.146C376.979,250.908,378.005,250.691,377.457,251.418"/>
<path display="none" d="M379.471,245.38c0.477-0.982,0.805-1.745,0.917-1.963c0.549-1.165,0.439-1.383,0.656-1.71
	c0.221-0.291,1.025,0.11,0.918,0.874c-0.037,0.361-0.623,1.598-1.246,2.763c0.732,0.036,1.721-0.364,2.125-0.728
	c0.4-0.363,1.246-0.146,0.623,0.509c-0.479,0.51-2.273,1.091-3.188,1.019c-0.989,1.782-1.319,2.511-1.612,2.946
	c-0.402,0.729-2.344,4.508-1.1,4.729c1.062,0.217,3.372-1.566,4.43-2.691c0.553-0.545,1.176-0.436,0.553,0.291
	c-0.66,0.834-3.152,3.236-4.983,3.236c-0.88,0-1.172-0.51-1.172-1.236c0-0.764,0.33-1.82,0.658-2.764
	c0.33-1.057,1.136-2.691,2.018-4.511c-1.064,0-2.201-0.291-2.641-0.546c-0.73-0.436-0.291-0.944,0.295-0.655
	C377.601,245.38,378.627,245.453,379.471,245.38"/>
<path display="none" d="M389.216,251.271c-0.623,0.98-3.518,2.982-5.35,3.383c-1.137,0.326-2.566-0.109-2.383-1.564
	c0.221-1.6,1.025-2.982,2.271-4.072c1.027-0.908,1.832-0.982,2.492-0.766c1.027,0.365,0,2.439-1.32,3.238
	c-0.768,0.438-1.904,0.654-2.197,0.326c-0.109,0.328-0.33,0.4-0.439,1.273c0,0.945,0.623,0.836,1.172,0.836
	c1.393-0.109,4.58-2.145,5.35-3.055C389.179,250.473,389.323,250.98,389.216,251.271 M383.243,250.871
	c0.219,0.328,0.805,0.291,1.355-0.107c0.732-0.51,1.465-1.383,1.209-1.783c-0.184-0.291-1.209,0.365-1.832,0.945
	C383.608,250.254,383.573,250.363,383.243,250.871"/>
<path display="none" d="M395.333,241.089c0.77-1.128,1.393-1.964,1.688-2.11c0.73-0.545,0.951,0.4,0.4,1.164
	c-0.145,0.182-0.4,0.474-0.695,0.874c0.881-0.036,1.686-0.036,2.309-0.036c2.639,0.071,6.191,0.69,5.936,2.327
	c-0.256,1.564-5.752,3.782-6.045,3.89c0.146,0.037,2.162,0.328,4.359,1.492c1.797,0.947,3.48,2.291,2.711,3.455
	c-0.953,1.711-4.322,3.164-6.961,3.893c-2.674,0.762-5.203,1.27-6.264,1.381c-1.064,0.107-1.834-0.838-0.771-1.564
	c1.062-0.762,1.504-0.873,1.504-0.545c0.107,0.217-0.844,0.654-0.625,0.945c0.184,0.217,3.188-0.109,6.779-1.273
	c3.297-1.055,5.166-2.436,5.496-3.271c0.549-1.164-2.82-2.838-5.275-3.455c-3.701-0.836-6.375-0.729-6.889-0.729
	c-0.33,0-0.514-0.217-0.551-0.471c-0.219,0.326-0.402,0.652-0.623,0.98c-2.455,3.6-5.02,8.109-5.02,8.109s0.328,0.109,0.221,0.436
	c-0.111,0.438-1.062,2.328-1.283,2.619c-0.184,0.436-1.574,0.326-0.732-1.455c0.732-1.707,4.029-7.381,5.936-10.145
	c1.062-1.419,2.529-3.783,3.811-5.638c-2.674,0.182-5.166,0.582-6.227,1.018c-0.844,0.363-1.174-0.909-0.221-1.163
	C389.509,241.524,392.585,241.234,395.333,241.089 M393.062,246.545c0.77-0.074,2.234,0,3.959,0.217
	c1.281-0.217,4.469-1.454,6.189-2.763c0.404-0.328,0.623-0.582,0.623-0.838c0-0.398-0.658-0.727-2.381-1.055
	c-1.025-0.182-2.307-0.254-3.664-0.254c-0.549,0-1.135,0-1.723,0.037c-0.879,1.236-2.125,2.908-3.334,4.728
	C392.841,246.582,392.915,246.545,393.062,246.545"/>
<path display="none" d="M408.706,250.836c-0.477,0.691-0.879,2.035-0.77,2.729c0.109,0.615,0.404,0.98,1.357,0.436
	c0.402-0.219,0.877-0.619,1.354-1.055c-0.184-0.254-0.293-0.619-0.256-1.164c0.072-1.49,1.137-3.273,2.311-3.602
	c0.951-0.217,1.5,0.328,1.391,1.057c-0.074,0.873-0.844,2.217-1.979,3.455c0.293,0,0.588-0.074,0.953-0.184
	c1.1-0.291,2.453-1.236,2.893-1.562c0.404-0.221,0.625,0.289,0.33,0.617c-0.438,0.4-2.088,1.455-3.811,1.781
	c-0.365,0.074-0.77,0.146-1.061,0.074c-0.514,0.471-1.137,0.945-1.688,1.271c-0.512,0.256-0.953,0.363-1.281,0.363
	c-0.695,0-1.062-0.471-1.246-1.381c-0.256-1.346,0.623-3.783,1.795-4.436c1.062-0.4,1.355,0.326,1.062,0.545
	C409.622,249.889,408.999,250.436,408.706,250.836 M413.214,249.344c0.072-0.436-0.221-0.545-0.551-0.328
	c-0.514,0.328-1.611,1.93-1.537,2.873c0,0.219,0.072,0.4,0.145,0.51c0.186-0.182,0.404-0.436,0.623-0.689
	C412.81,250.617,413.103,250.072,413.214,249.344"/>
<path display="none" d="M422.298,248.363c-0.328,0.037-2.125,1.309-3.334,2.689c-0.365,0.328-0.695,0.799-1.062,1.199
	c0.953,1.238,3.592,2.619,3.592,2.039c0-0.727,0.77,0.398,0.035,0.654c-0.916,0.328-2.82-0.729-3.992-1.965
	c-1.135,1.455-2.053,2.691-2.199,2.945c-0.219,0.363-0.879,0.111-0.695-0.436c0.184-0.398,1.318-1.855,2.309-3.238
	c-0.77-0.943-1.209-1.67-1.1-2.543c0.182-1.201,1.465-0.619,1.355-0.221c-0.695,0.691-0.256,1.42,0.293,2.146
	c0.295-0.4,0.588-0.836,0.916-1.162c1.393-1.746,3.482-2.729,3.883-2.656C422.665,247.891,422.737,248.254,422.298,248.363"/>
<path display="none" d="M424.007,253.59c0,0.268-0.238,0.488-0.494,0.488c-0.254,0-0.492-0.221-0.492-0.488
	c0-0.27,0.223-0.49,0.492-0.49C423.786,253.1,424.007,253.32,424.007,253.59"/>
<path display="none" d="M427.999,251.168c-0.271-0.326-0.584-0.465-0.971-0.465c-0.861,0-1.297,0.635-1.297,1.418
	s0.518,1.42,1.297,1.42c0.42,0,0.738-0.146,0.979-0.475l0.477,0.449c-0.371,0.424-0.896,0.611-1.455,0.611
	c-1.191,0-1.988-0.832-1.988-2.006c0-1.156,0.807-2.006,1.988-2.006c0.566,0,1.094,0.188,1.479,0.604L427.999,251.168z"/>
<path display="none" d="M431.052,250.117c1.184,0,2.055,0.814,2.055,2.006c0,1.188-0.871,2.004-2.055,2.004
	c-1.182,0-2.053-0.816-2.053-2.004C428.999,250.932,429.87,250.117,431.052,250.117 M431.052,253.541
	c0.83,0,1.365-0.619,1.365-1.418c0-0.801-0.535-1.42-1.365-1.42c-0.828,0-1.361,0.619-1.361,1.42
	C429.69,252.922,430.224,253.541,431.052,253.541"/>
<path display="none" d="M434.099,251.119c0-0.352-0.033-0.652-0.033-0.906h0.607c0,0.205,0.018,0.416,0.018,0.629h0.016
	c0.174-0.375,0.65-0.725,1.281-0.725c0.83,0,1.092,0.465,1.215,0.725c0.281-0.449,0.633-0.725,1.219-0.725
	c1.1,0,1.461,0.609,1.461,1.598v2.316h-0.641v-2.285c0-0.531-0.189-1.043-0.938-1.043c-0.541,0-0.994,0.439-0.994,1.125v2.203
	h-0.641v-2.162c0-0.84-0.215-1.166-0.738-1.166c-0.83,0-1.191,0.596-1.191,1.467v1.861h-0.641V251.119z"/>
<path display="none" d="M442.122,253.59c0,0.268-0.238,0.488-0.492,0.488c-0.256,0-0.492-0.221-0.492-0.488
	c0-0.27,0.221-0.49,0.492-0.49S442.122,253.32,442.122,253.59"/>
<path display="none" d="M443.329,250.703c0.395-0.4,0.969-0.588,1.529-0.588c1.133,0,1.609,0.539,1.609,1.615v1.639
	c0,0.221,0.023,0.465,0.057,0.66h-0.617c-0.039-0.172-0.039-0.408-0.039-0.57h-0.018c-0.254,0.391-0.682,0.668-1.266,0.668
	c-0.779,0-1.428-0.391-1.428-1.133c0-1.264,1.479-1.336,2.422-1.336h0.248v-0.115c0-0.555-0.354-0.84-0.955-0.84
	c-0.41,0-0.836,0.139-1.141,0.416L443.329,250.703z M445.187,252.195c-0.814,0-1.34,0.219-1.34,0.732
	c0,0.482,0.359,0.662,0.848,0.662c0.738,0,1.115-0.529,1.133-1.15v-0.244H445.187z"/>
<path display="none" d="M450.993,253.125c0,0.35,0.031,0.65,0.031,0.906h-0.607c0-0.205-0.016-0.416-0.016-0.631h-0.018
	c-0.174,0.375-0.648,0.727-1.281,0.727c-1.012,0-1.463-0.635-1.463-1.559v-2.355h0.641v2.293c0,0.635,0.279,1.035,0.879,1.035
	c0.83,0,1.191-0.596,1.191-1.469v-1.859h0.643V253.125z"/>
<path display="none" fill="#ED1C24" d="M282.128,3.802c-1.799-1.078-3.974-1.437-6.85-1.437c-5.071,0-9.052,1.784-12.667,5.739
	c-4.333,4.656-6.134,11.478-6.134,20.089c0,16.512,6.134,24.757,18.071,24.757l7.579-1.424l-1.087-6.48l-5.065,1.095
	c-7.575,0-11.201-6.11-11.201-18.3c0-12.19,3.626-18.665,10.849-18.665l5.076,1.089L282.128,3.802z"/>
<path display="none" fill="#ED1C24" d="M293.698,2.724h-7.958l0.368,49.856h7.591V29.636l0.355-2.52
	c1.088-3.231,2.536-4.303,4.701-4.303c2.529,0,3.982,2.514,3.982,7.17V52.58l8.315-0.353l-0.375-22.592
	c0-9.329-2.875-13.633-8.662-13.633c-1.815,0-3.26,0.342-5.072,1.419c-1.448,0.735-2.148,1.802-3.244,2.885V2.724z"/>
<polygon display="none" fill="#ED1C24" points="154.012,2.712 154.012,9.894 163.059,9.894 163.42,52.228 171.385,52.228 
	171.01,9.894 180.029,9.894 180.029,2.712 "/>
<path display="none" fill="#ED1C24" d="M200.293,15.627l-5.066,1.442l-3.257,3.23V2.712h-7.949l0.372,49.515h7.577V29.618
	l0.362-2.854c1.09-2.879,2.17-4.314,4.713-4.314c2.519,0,3.97,2.513,3.97,7.528v22.25l7.956-0.36V29.618
	C208.971,20.3,206.061,15.627,200.293,15.627"/>
<path display="none" fill="#ED1C24" d="M220.521,30.684c0-6.086,1.813-9.33,5.066-9.33c2.888,0,4.701,3.244,4.701,9.33H220.521z
	 M216.189,20.653c-2.533,3.579-3.608,8.259-3.608,13.979c0,11.855,4.694,17.936,14.449,17.936l9.05-1.783l-1.079-5.745
	c-1.813,1.083-4.347,1.448-6.525,1.448c-5.411,0-7.955-3.573-7.955-10.407h16.631l0.359-4.303
	c-0.359-10.76-3.975-16.146-11.568-16.146C222.334,15.633,219.083,17.422,216.189,20.653"/>
<path display="none" fill="#ED1C24" d="M468.258,21.024c3.26,0,4.702,2.86,4.702,8.971l-9.747,0.353
	C463.213,24.262,465.014,21.024,468.258,21.024 M480.565,31.784c-0.37-11.125-3.973-16.517-11.59-16.517
	c-3.962,0-7.217,1.802-9.736,5.039c-2.554,3.578-3.989,8.258-3.989,14.338c0,11.496,5.055,17.583,14.455,17.583l9.036-1.796
	l-1.083-5.727l-6.493,1.436c-5.067,0-7.952-3.614-7.952-10.042l16.982-0.37L480.565,31.784z"/>
<polygon display="none" fill="#ED1C24" points="585.728,16.356 577.788,16.356 572.713,29.642 568.034,16.356 559.347,16.356 
	567.651,34.298 559.347,52.228 567.305,52.228 572.014,38.971 572.372,38.971 577.423,52.228 585.728,52.228 577.423,33.944 "/>
<path display="none" fill="#ED1C24" d="M453.442,21.736v-5.733h-6.87l-0.358-8.971l-7.581,2.515v6.456h-4.339v5.733h4.339
	l0.348,18.647c0,4.662,0.735,7.894,2.184,9.695c1.43,1.447,3.596,2.501,6.862,2.148l5.062-0.701v-6.098l-2.914,0.353
	c-2.148,0-3.603-1.801-3.603-5.751V21.736H453.442z"/>
<path display="none" fill="#ED1C24" d="M423.44,33.933l-0.353,8.594c-0.359,2.891-2.172,4.32-4.339,4.32
	c-2.549,0-3.626-2.142-3.626-5.738C414.782,36.44,417.66,33.933,423.44,33.933 M431.399,43.609V29.271
	c0-8.964-4.345-13.62-11.938-13.62c-3.991,0-7.217,0.694-9.754,2.507l1.454,5.351c2.16-1.418,4.309-2.131,6.498-2.131
	c3.608,0,5.428,2.131,5.428,6.099v1.437c-10.49,0-15.904,4.302-15.904,12.926c0,3.22,1.065,5.721,2.883,7.881
	c1.454,1.808,3.598,2.861,6.134,2.861c3.262,0,6.168-1.431,7.976-4.297l0.365,3.584h7.216
	C431.399,49.719,431.399,47.206,431.399,43.609"/>
<rect x="395.246" y="5.962" display="none" fill="#ED1C24" width="7.946" height="46.271"/>
<path display="none" fill="#ED1C24" d="M510.19,29.636h2.167c5.772,0,8.693,2.52,8.693,8.259c0,5.732-2.921,8.594-8.323,8.594
	h-2.537V29.636z M509.838,8.834l2.89-0.359c4.697,0,6.857,2.16,6.857,7.176c0,5.38-2.16,7.887-7.228,7.887h-2.52V8.834z
	 M511.645,2.365l-9.76,1.083l0.343,48.78l8.334,0.364c7.228,0,11.907-1.795,14.81-4.645c2.166-2.536,3.62-5.738,3.62-10.053
	c0-6.093-3.261-10.043-9.047-11.832v-0.359c5.08-2.166,7.24-5.744,7.24-11.124c0-3.597-1.084-6.822-3.614-8.617
	C521.051,3.448,517.066,2.365,511.645,2.365"/>
<path display="none" fill="#ED1C24" d="M551.028,34.298c0,8.258-1.43,12.19-4.32,12.19c-3.626,0-5.426-3.933-5.426-12.19
	c0-8.235,1.44-12.544,5.062-12.544C549.599,21.754,551.028,26.062,551.028,34.298 M546.708,16.009c-3.985,0-6.875,1.448-9.047,4.298
	c-2.89,3.23-4.338,8.258-4.338,13.991c0,12.549,4.69,18.671,13.021,18.671h0.364c3.25,0,5.78-1.083,7.94-3.962
	c3.249-3.226,4.698-8.24,4.698-14.709C559.347,21.754,555.013,15.65,546.708,16.009"/>
<path display="none" fill="#ED1C24" d="M364.55,16.704l-5.06-1.054c-4.699,0-8.696,1.771-11.215,5.374
	c-2.9,3.585-4.338,8.246-4.338,13.62c0,12.196,5.047,17.936,14.093,17.936l6.52-1.054l-1.106-6.109l-3.606,0.724
	c-5.423,0-7.942-3.956-7.942-11.496c0-8.234,2.52-12.555,7.942-12.555l3.606,0.724L364.55,16.704z"/>
<path display="none" fill="#ED1C24" d="M382.973,33.933c0.354,8.594-1.454,12.908-4.702,12.908c-3.261,0-5.416-4.314-5.416-12.908
	c0-8.253,1.807-12.196,5.051-12.196C381.519,21.736,382.973,25.68,382.973,33.933 M378.271,15.65c-3.962,0-6.501,1.419-9.035,4.656
	c-2.528,3.201-4.326,7.887-3.983,13.979c0,12.555,4.347,18.294,12.653,18.294h0.365c3.248,0,6.128-1.054,8.316-3.92
	c3.237-3.243,4.339-7.905,4.339-14.728C390.926,21.736,386.587,15.65,378.271,15.65"/>
<path display="none" fill="#ED1C24" d="M327.682,46.847c-3.616,0-5.435-4.32-5.435-12.202c0-8.617,1.452-12.555,5.067-12.555
	c3.619,0,5.062,3.938,5.062,12.196C332.376,42.526,330.933,46.847,327.682,46.847 M340.323,33.933
	c0-11.843-3.976-18.282-12.642-18.282c-3.983,0-6.869,1.783-9.406,4.656c-2.523,3.578-3.99,7.887-3.622,14.338
	c0,12.202,4.356,18.312,12.66,17.936h0.368c3.251,0,6.147-1.054,8.301-3.573C339.233,45.417,340.323,40.767,340.323,33.933"/>
<g display="none">
	<path display="inline" fill="#ED1C24" d="M420.715,87.861c1.537,0,2.813,1.078,2.813,2.602c0,1.572-1.177,2.679-2.813,2.679
		s-2.818-1.106-2.818-2.679C417.896,88.939,419.179,87.861,420.715,87.861 M420.715,81.033c1.308,0,2.302,1.014,2.302,2.255
		c0,1.312-1.048,2.325-2.302,2.325c-1.395,0-2.295-1.013-2.295-2.325C418.42,82.047,419.268,81.033,420.715,81.033 M420.715,78.644
		c-2.837,0-5.126,1.572-5.126,4.362c0,1.76,0.847,3.231,2.53,3.72v0.054c-1.589,0.334-3.056,2.013-3.056,4.036
		c0,3.28,2.532,4.998,5.651,4.998c3.114,0,5.645-1.718,5.645-4.998c0-2.023-1.442-3.702-3.042-4.036v-0.048
		c1.671-0.494,2.525-1.966,2.525-3.726C425.843,80.216,423.553,78.644,420.715,78.644 M411.474,78.926h-9.518l-0.171,8.96
		c1.007-0.488,2.267-0.801,3.491-0.801c2.089,0,3.932,0.889,3.932,3.207c0,1.632-1.2,2.85-2.908,2.85
		c-1.436,0-2.366-0.725-2.742-1.938l-2.973,0.812c0.776,2.556,2.767,3.797,5.421,3.797c3.42,0,6.033-2.178,6.033-5.744
		c0-3.361-2.283-5.521-5.586-5.521c-0.577,0-1.337,0.083-1.777,0.218l0.063-3.313h6.734V78.926z M395.522,84.342
		c0,1.672-1.378,3.037-3.043,3.037c-1.689,0-3.043-1.365-3.043-3.037s1.354-3.02,3.043-3.02
		C394.145,81.322,395.522,82.67,395.522,84.342 M392.667,95.538l4.286-6.7c0.912-1.44,1.548-2.802,1.548-4.543
		c0-3.52-2.449-5.651-5.945-5.651c-3.438,0-5.957,2.225-5.957,5.68c0,2.885,2.078,5.293,5.026,5.293
		c0.565,0,1.243-0.095,1.565-0.276l0.042,0.047l-4.014,6.151H392.667z M378.918,95.538h2.83V78.926h-2.565l-5.05,4.18l1.642,1.936
		l3.144-2.883V95.538z M360.554,93.89c0,1.007,0.903,1.776,1.887,1.776c1.041,0,1.887-0.817,1.887-1.83
		c0-0.995-0.865-1.766-1.887-1.766C361.411,92.07,360.554,92.888,360.554,93.89 M351.676,95.538h2.975V81.593h5.126v-2.667h-13.229
		v2.667h5.129V95.538z M344.268,80.216c-1.297-1.213-3.05-1.713-4.796-1.713c-3.101,0-6.169,1.595-6.169,5.015
		c0,5.934,7.943,3.85,7.943,7.487c0,1.53-1.562,2.283-2.934,2.283c-1.326,0-2.583-0.646-3.312-1.736l-2.238,2.155
		c1.368,1.618,3.394,2.248,5.479,2.248c3.284,0,6.116-1.736,6.116-5.304c0-5.909-7.938-4.009-7.938-7.347
		c0-1.518,1.374-2.13,2.743-2.13c1.162,0,2.288,0.418,2.935,1.307L344.268,80.216z M318.793,95.538h11.499v-2.679h-8.526v-4.515
		h7.68v-2.673h-7.68v-4.079h8.107v-2.667h-11.08V95.538z"/>
</g>
<path display="none" fill="#ED1C24" d="M369.962-61.717l-0.007,0.523l-0.039-0.523l-70.299,5.363l2.774,36.368l67.986,2.913
	l67.86-1.653l2.025-42.141L369.962-61.717z M409.614-55.319l-1.566,31.404c-2.572,0.062-5.203,0.131-7.816,0.191l-0.225-31.7
	C403.216-55.388,406.453-55.346,409.614-55.319 M434.007-55.021c-0.242,5.087-1.248,25.785-1.466,30.505
	c-2.478,0.067-11.007,0.264-20.961,0.514l1.548-31.276C423.017-55.152,431.399-55.048,434.007-55.021 M396.717-23.634
	c-9.706,0.227-18.747,0.453-23.268,0.569l-0.394-32.691c4.49,0.051,13.573,0.162,23.438,0.278L396.717-23.634z M337.788-24.402
	l-1.454-28.806c12.414-0.952,25.093-1.922,30.758-2.348l0.389,32.43C362.005-23.363,349.788-23.883,337.788-24.402 M326.552-24.886
	l-1.626-27.452c2.537-0.197,5.198-0.4,7.902-0.606l1.429,28.389C331.622-24.671,329.028-24.777,326.552-24.886 M307.946-25.685
	c-0.32-4.21-1.572-20.64-1.924-25.212c2.067-0.162,7.966-0.611,15.408-1.17l1.597,27.027
	C315.683-25.347,309.875-25.601,307.946-25.685"/>
<path display="none" fill="#ED1C24" d="M432.429-83.292l-1.684-3.358l-1.184,0.597c-0.129,0.068-24.604,11.965-55.234,12.786
	l6.173-2.838c5.093-2.309,9.625-4.358,13.039-5.945c3.432-1.611,5.68-2.668,6.534-3.22c10.389-6.753,15.839-13.692,15.909-21.309
	v-0.103c0.036-5.924-2.749-9.147-5.133-10.566c-1.937-1.198-4.296-1.746-6.821-1.746c-3.209,0-6.729,0.896-10.172,2.621
	c-10.219,5.154-15.827,14.427-19.548,21.775c-0.977,1.945-2.236,4.575-3.373,7.458c-1.146-2.883-2.391-5.513-3.375-7.458
	c-3.724-7.348-9.339-16.621-19.549-21.775c-3.441-1.724-6.96-2.621-10.188-2.621c-2.52,0-4.875,0.547-6.824,1.746
	c-2.383,1.418-5.152,4.642-5.117,10.536c0,0.032-0.006,0.09,0,0.167c0.066,7.597,5.515,14.521,15.925,21.277
	c0.86,0.548,3.087,1.615,6.552,3.224c3.439,1.6,7.988,3.658,13.111,5.998l6.067,2.778c-30.625-0.815-55.13-12.718-55.229-12.786
	l-1.183-0.601l-2.277,4.527l1.167,0.587c0.382,0.182,27.372,13.343,60.837,13.36h0.018h0.121
	c33.472-0.009,60.477-13.181,60.836-13.356l1.188-0.581L432.429-83.292z M378.858-92.328c3.461-6.879,8.548-15.144,17.307-19.541
	c2.742-1.387,5.544-2.081,7.887-2.075c1.683,0,3.107,0.363,4.126,0.989c1.736,1.071,2.689,2.962,2.713,6.242l0.007,0.1
	c0,5.312-4.209,11.011-13.621,17.132c-0.389,0.265-3.491,1.751-7.17,3.451c-3.726,1.706-8.176,3.728-11.725,5.337
	c-1.96,0.889-3.52,1.586-4.768,2.162c-0.007-0.049-0.023-0.094-0.035-0.147C374.804-83.781,377.476-89.615,378.858-92.328
	 M351.807-86.024c-3.698-1.691-6.82-3.191-7.211-3.457c-9.417-6.121-13.63-11.819-13.63-17.134v-0.097
	c0.029-3.28,0.985-5.171,2.712-6.232c1.017-0.636,2.437-0.999,4.118-0.999h0.019c2.336-0.006,5.146,0.688,7.899,2.083
	c8.749,4.389,13.825,12.653,17.299,19.532c1.381,2.713,4.052,8.54,5.272,13.641c-0.021,0.049-0.029,0.102-0.037,0.156
	c-1.235-0.562-2.745-1.243-4.669-2.124C360.015-82.263,355.542-84.292,351.807-86.024"/>
<g>
	<g>
		<path fill="#FFFFFF" d="M452.15,339.754c2.523,0,4.62,1.771,4.62,4.275c0,2.58-1.933,4.397-4.62,4.397
			c-2.688,0-4.63-1.817-4.63-4.397C447.521,341.525,449.623,339.754,452.15,339.754 M452.15,328.539
			c2.147,0,3.778,1.665,3.778,3.704c0,2.154-1.722,3.819-3.778,3.819c-2.294,0-3.772-1.665-3.772-3.819
			C448.378,330.204,449.771,328.539,452.15,328.539 M452.15,324.614c-4.661,0-8.421,2.582-8.421,7.164
			c0,2.89,1.392,5.31,4.154,6.111v0.087c-2.61,0.547-5.019,3.306-5.019,6.63c0,5.388,4.161,8.208,9.285,8.208
			c5.111,0,9.27-2.82,9.27-8.208c0-3.324-2.368-6.083-4.997-6.63v-0.078c2.743-0.811,4.148-3.23,4.148-6.12
			C460.571,327.196,456.809,324.614,452.15,324.614 M436.97,325.078h-15.633l-0.28,14.716c1.656-0.802,3.723-1.314,5.733-1.314
			c3.434,0,6.457,1.459,6.457,5.268c0,2.679-1.97,4.68-4.776,4.68c-2.354,0-3.884-1.189-4.502-3.184l-4.882,1.335
			c1.273,4.198,4.543,6.236,8.902,6.236c5.615,0,9.909-3.577,9.909-9.434c0-5.52-3.75-9.07-9.173-9.07
			c-0.95,0-2.196,0.137-2.921,0.357l0.103-5.441h11.062V325.078z M410.771,333.974c0,2.746-2.265,4.988-4.997,4.988
			c-2.774,0-5-2.242-5-4.988c0-2.747,2.226-4.959,5-4.959C408.506,329.015,410.771,331.227,410.771,333.974 M406.082,352.363
			l7.038-11.006c1.5-2.365,2.545-4.601,2.545-7.461c0-5.779-4.027-9.282-9.767-9.282c-5.646,0-9.786,3.654-9.786,9.329
			c0,4.739,3.416,8.692,8.257,8.692c0.929,0,2.042-0.156,2.573-0.453l0.068,0.076l-6.594,10.104H406.082z M383.499,352.363h4.646
			v-27.285h-4.211l-8.293,6.865l2.693,3.179l5.165-4.733V352.363z M353.335,349.655c0,1.653,1.486,2.917,3.098,2.917
			c1.712,0,3.102-1.343,3.102-3.005c0-1.633-1.423-2.9-3.102-2.9C354.743,346.667,353.335,348.011,353.335,349.655 M338.754,352.363
			h4.885v-22.905h8.418v-4.38h-21.728v4.38h8.424V352.363z M326.586,327.196c-2.132-1.991-5.01-2.812-7.877-2.812
			c-5.093,0-10.134,2.617-10.134,8.236c0,9.744,13.048,6.322,13.048,12.298c0,2.511-2.567,3.747-4.816,3.747
			c-2.182,0-4.245-1.061-5.444-2.851l-3.673,3.54c2.243,2.658,5.574,3.692,8.996,3.692c5.394,0,10.046-2.853,10.046-8.71
			c0-9.707-13.039-6.586-13.039-12.066c0-2.492,2.256-3.499,4.506-3.499c1.908,0,3.757,0.686,4.819,2.145L326.586,327.196z
			 M284.743,352.363h18.891v-4.4h-14.005v-7.415h12.613v-4.391h-12.613v-6.699h13.315v-4.38h-18.201V352.363z"/>
	</g>
	<path fill="#FFFFFF" d="M368.789,94.078l-0.013,0.859l-0.062-0.859l-115.466,8.808l4.557,59.731l111.664,4.785l111.46-2.716
		l3.325-69.215L368.789,94.078z M433.919,104.586l-2.577,51.579c-4.223,0.101-8.546,0.215-12.837,0.315l-0.37-52.067
		C423.405,104.472,428.726,104.541,433.919,104.586 M473.98,105.073c-0.397,8.356-2.048,42.351-2.408,50.105
		c-4.07,0.111-18.077,0.435-34.429,0.845l2.543-51.372C455.929,104.857,469.698,105.032,473.98,105.073 M412.734,156.626
		c-15.944,0.375-30.795,0.746-38.218,0.936l-0.646-53.694c7.376,0.084,22.293,0.267,38.499,0.457L412.734,156.626z M315.943,155.365
		l-2.387-47.311c20.388-1.565,41.215-3.156,50.519-3.858l0.637,53.264C355.719,157.071,335.653,156.218,315.943,155.365
		 M297.487,154.569l-2.669-45.088c4.167-0.323,8.54-0.659,12.977-0.996l2.35,46.629
		C305.815,154.922,301.555,154.749,297.487,154.569 M266.928,153.257c-0.525-6.915-2.581-33.9-3.159-41.409
		c3.395-0.266,13.084-1.004,25.309-1.922l2.62,44.392C279.635,153.813,270.098,153.395,266.928,153.257"/>
	<path fill="#FFFFFF" d="M471.388,58.639l-2.766-5.516l-1.941,0.98c-0.215,0.112-40.413,19.655-90.723,21l10.137-4.66
		c8.364-3.791,15.81-7.161,21.416-9.767c5.638-2.645,9.329-4.38,10.733-5.289c17.063-11.089,26.017-22.487,26.131-34.998V20.22
		c0.059-9.728-4.515-15.023-8.431-17.352C432.763,0.899,428.888,0,424.739,0c-5.271,0-11.051,1.473-16.706,4.305
		c-16.783,8.463-25.994,23.693-32.106,35.765c-1.604,3.192-3.673,7.514-5.538,12.25c-1.886-4.736-3.928-9.057-5.547-12.25
		c-6.116-12.071-15.336-27.301-32.106-35.765C327.083,1.473,321.303,0,316.002,0c-4.14,0-8.008,0.899-11.209,2.869
		c-3.915,2.329-8.462,7.624-8.403,17.303c0,0.053-0.012,0.148,0,0.275c0.106,12.477,9.059,23.852,26.156,34.947
		c1.41,0.902,5.068,2.652,10.761,5.295c5.649,2.629,13.119,6.008,21.535,9.853l9.965,4.562c-50.304-1.336-90.552-20.888-90.713-21
		l-1.942-0.983l-3.738,7.435l1.914,0.961c0.628,0.298,44.956,21.917,99.925,21.947h0.028h0.199
		c54.978-0.017,99.334-21.653,99.921-21.937l1.954-0.958L471.388,58.639z M383.399,43.8c5.688-11.299,14.04-24.874,28.428-32.097
		c4.503-2.28,9.105-3.415,12.952-3.406c2.763,0,5.103,0.597,6.777,1.623c2.854,1.758,4.419,4.866,4.456,10.252l0.012,0.164
		c0,8.726-6.913,18.085-22.373,28.14c-0.637,0.435-5.733,2.876-11.777,5.667c-6.118,2.802-13.428,6.122-19.257,8.766
		c-3.219,1.46-5.78,2.607-7.828,3.552c-0.012-0.081-0.04-0.156-0.062-0.239C376.74,57.835,381.128,48.255,383.399,43.8
		 M338.969,54.151c-6.075-2.776-11.203-5.241-11.842-5.676c-15.469-10.054-22.39-19.414-22.39-28.143v-0.16
		c0.046-5.386,1.619-8.494,4.453-10.234c1.671-1.044,4.005-1.641,6.765-1.641h0.031c3.838-0.009,8.452,1.126,12.977,3.42
		c14.369,7.209,22.706,20.784,28.411,32.083c2.269,4.455,6.657,14.023,8.661,22.403c-0.035,0.078-0.05,0.169-0.062,0.256
		c-2.029-0.926-4.509-2.043-7.669-3.487C352.449,60.329,345.103,56.998,338.969,54.151"/>
	<g>
		<path fill="#FFFFFF" d="M37.42,236.701c-7.383,12.305-22.338,42.974-20.067,47.14c0.946,1.705,3.407-1.136,3.407-2.841
			c0-1.325,2.461,0,1.703,2.841c-1.136,3.407-3.597,8.52-7.382,6.814c-1.894-0.566-2.651-2.271-2.651-5.109
			c0-2.841,0.757-6.627,2.461-11.549c3.028-9.467,10.411-26.126,20.256-42.597c6.058-10.224,16.661-27.83,20.068-29.344
			c-21.014,3.786-41.649,11.927-47.708,13.062c-7.384,1.136-8.52-5.112-6.817-5.112c2.272,0,5.681,0.568,15.525-2.84
			c9.086-3.597,36.728-11.548,55.848-12.116c1.895,0,3.787,0,5.491,0c19.5,0,27.072,2.65,29.722,5.112
			c3.409,3.03,0.568,5.868-2.461,3.976c-2.271-1.704-10.412-4.355-24.421-4.355c-3.028,0-6.436,0-10.223,0.379
			c-3.976,0.189-7.762,0.568-11.738,1.325c0.946,0.379,1.325,1.515,0.379,2.65C56.542,207.167,48.59,217.959,37.42,236.701z
			 M87.778,210.007c3.976-4.165,6.248,0.568,3.787,3.03c-6.058,5.868-24.611,39.565-28.775,56.227c0,0,12.873-15.336,22.717-22.34
			c1.894-1.326,4.355,0,3.787,3.977c-0.379,2.271-1.325,6.814-1.325,10.79c0,3.407,0.756,6.248,3.407,7.005
			c5.87,1.515,14.01-8.519,17.607-11.548c2.651-2.271,3.787,0,2.651,1.325c-3.407,3.975-11.359,14.009-19.122,14.388
			c-6.814,0.379-8.33-6.438-8.33-12.115c0-4.166,0.758-7.764,0.758-7.764s-13.821,11.171-21.583,22.15
			c-2.271,3.218-6.625,2.841-6.248-0.946C58.056,262.827,76.988,221.556,87.778,210.007z"/>
		<path fill="#FFFFFF" d="M144.762,258.473c-3.22,5.11-18.176,15.524-27.641,17.605c-5.869,1.704-13.252-0.567-12.306-8.14
			c1.136-8.329,5.301-15.523,11.738-21.204c5.3-4.732,9.466-5.112,12.873-3.976c5.301,1.895,0,12.685-6.814,16.851
			c-3.977,2.271-9.845,3.407-11.36,1.702c-0.568,1.705-1.705,2.084-2.271,6.627c0,4.922,3.218,4.354,6.058,4.354
			c7.194-0.567,23.665-11.17,27.639-15.902C144.573,254.307,145.33,256.959,144.762,258.473z M113.903,256.39
			c1.136,1.704,4.164,1.515,7.004-0.567c3.787-2.65,7.573-7.193,6.248-9.277c-0.946-1.514-6.248,1.894-9.466,4.923
			C115.795,253.172,115.606,253.739,113.903,256.39z"/>
		<path fill="#FFFFFF" d="M252.704,260.555c-3.029,3.218-30.48,29.534-68.343,31.237c-16.092,0.758-25.178-6.626-25.178-18.175
			c0-14.388,9.465-31.805,33.32-49.979c19.877-14.198,32.94-19.12,38.431-19.12c7.762,0,8.898,7.572,8.898,7.572
			s1.136-1.703,2.84-1.703c0.567,0,2.082,1.515,2.082,2.84c0,1.136-6.626,6.436-8.329,9.843c-2.84,3.786-0.569,6.627-4.922,6.627
			c-1.705,0-4.355-0.567-4.355-2.462c0-3.028,7.194-14.197,7.194-14.956c0-1.325-1.514-1.892-4.733-1.892
			c-2.461,0-13.819,0.379-37.294,19.689c-22.529,18.554-27.452,32.185-28.208,41.649c-0.758,9.275,4.733,17.039,21.771,15.523
			c29.154-2.461,56.795-21.581,63.42-28.964C252.704,254.497,255.923,257.147,252.704,260.555z"/>
		<path fill="#FFFFFF" d="M272.203,206.979c4.355-3.787,5.679,1.513,4.355,4.922c-1.327,3.407-14.39,33.696-20.637,43.542
			c-2.651,4.166-5.68,14.199-5.68,14.199s12.873-15.524,22.717-22.529c1.893-1.325,3.978,0,3.41,3.977
			c-0.379,2.271-1.137,6.437-1.137,10.412c0,3.786,0.758,7.193,3.598,7.952c5.867,1.512,14.387-8.899,17.983-11.928
			c2.651-2.273,3.788,0.567,2.651,1.893c-3.406,3.977-11.737,13.82-19.5,14.198c-6.815,0.38-8.33-6.625-8.33-12.495
			c0-4.354,0.758-7.95,0.758-7.95s-13.82,10.98-21.583,21.96c-2.271,3.218-6.058,2.841-6.248-0.946
			C244.185,268.885,267.848,210.766,272.203,206.979z"/>
		<path fill="#FFFFFF" d="M301.356,256.2c-2.461,3.599-4.543,10.603-3.975,14.198c0.569,3.219,2.083,5.112,7.005,2.273
			c2.082-1.137,4.543-3.218,7.004-5.49c-0.945-1.326-1.513-3.219-1.324-6.06c0.379-7.761,5.867-17.038,11.927-18.742
			c4.922-1.135,7.762,1.704,7.194,5.491c-0.379,4.544-4.354,11.548-10.224,17.984c1.517,0,3.03-0.378,4.923-0.947
			c5.68-1.513,12.685-6.436,14.956-8.14c2.082-1.135,3.219,1.516,1.703,3.218c-2.271,2.084-10.789,7.573-19.688,9.277
			c-1.893,0.379-3.975,0.757-5.488,0.379c-2.651,2.462-5.87,4.922-8.71,6.626c-2.651,1.325-4.922,1.894-6.625,1.894
			c-3.599,0-5.492-2.461-6.439-7.196c-1.324-7.003,3.22-19.688,9.279-23.095c5.488-2.083,7.004,1.704,5.488,2.839
			C306.089,251.277,302.873,254.118,301.356,256.2z M324.644,248.438c0.379-2.271-1.138-2.841-2.84-1.704
			c-2.651,1.704-8.332,10.034-7.953,14.956c0,1.137,0.379,2.082,0.758,2.651c0.948-0.946,2.082-2.271,3.219-3.597
			C322.562,255.064,324.075,252.226,324.644,248.438z"/>
		<path fill="#FFFFFF" d="M358.717,248.06c-8.328,0-17.039,10.98-18.931,16.661c-0.758,2.271-1.137,3.975-1.137,5.3
			c0,2.651,1.706,3.597,5.68,3.219c8.332-1.135,24.801-9.656,31.427-15.902c2.271-2.084,5.491-0.947,2.65,2.462
			c-3.785,5.489-22.529,16.279-35.211,17.795c-3.788,0.568-6.628-0.567-8.142-2.65c-1.137-1.704-2.271-8.141,3.785-18.175
			c6.249-10.413,13.254-13.821,17.039-14.198C358.717,242.38,360.423,248.06,358.717,248.06z"/>
		<path fill="#FFFFFF" d="M381.058,256.2c-2.463,3.599-4.543,10.603-3.976,14.198c0.569,3.219,2.083,5.112,7.005,2.273
			c2.082-1.137,4.543-3.218,7.005-5.49c-0.945-1.326-1.514-3.219-1.325-6.06c0.38-7.761,5.868-17.038,11.928-18.742
			c4.922-1.135,7.763,1.704,7.193,5.491c-0.379,4.544-4.354,11.548-10.224,17.984c1.517,0,3.03-0.378,4.922-0.947
			c5.681-1.513,12.686-6.436,14.957-8.14c2.081-1.135,3.219,1.516,1.702,3.218c-2.271,2.084-10.788,7.573-19.688,9.277
			c-1.893,0.379-3.975,0.757-5.488,0.379c-2.65,2.462-5.869,4.922-8.71,6.626c-2.65,1.325-4.922,1.894-6.625,1.894
			c-3.599,0-5.491-2.461-6.439-7.196c-1.324-7.003,3.22-19.688,9.279-23.095c5.488-2.083,7.005,1.704,5.488,2.839
			C385.79,251.277,382.573,254.118,381.058,256.2z M404.345,248.438c0.379-2.271-1.138-2.841-2.841-1.704
			c-2.65,1.704-8.331,10.034-7.952,14.956c0,1.137,0.379,2.082,0.759,2.651c0.948-0.946,2.082-2.271,3.22-3.597
			C402.262,255.064,403.776,252.226,404.345,248.438z"/>
		<path fill="#FFFFFF" d="M454.701,194.673c3.406,0,5.112,4.164,4.733,10.411c-0.759,10.792-8.331,21.583-19.5,35.592
			c-8.142,10.224-14.577,16.66-17.606,19.31c-0.38,2.273-0.759,4.166-0.759,5.869c0,4.165,1.893,6.059,6.626,5.301
			c9.278-1.702,20.636-10.222,23.287-13.441c2.84-2.839,5.49-0.946,2.271,2.84c-3.785,4.543-17.797,14.198-27.642,15.335
			c-6.625,0.758-8.518-4.544-8.518-10.602c0-2.841,0.379-6.059,0.945-8.709c3.788-20.636,15.524-42.785,27.072-55.848
			C449.4,196.565,452.43,194.673,454.701,194.673z M447.884,204.518c-9.466,12.116-20.634,33.131-24.612,49.222
			c3.22-3.408,8.332-8.52,15.715-18.553c12.117-16.281,15.146-22.149,16.47-30.102C456.594,198.459,453.375,197.891,447.884,204.518
			z"/>
		<path fill="#FFFFFF" d="M504.11,259.229c-3.408,4.543-14.767,12.685-19.689,13.821c-2.081,0.566-4.164,1.135-5.869,1.135
			c-2.838,0-4.922-1.325-5.109-5.49c-0.188-4.732,2.271-10.223,2.271-10.223s-11.36,13.441-22.339,17.229
			c-6.061,2.081-9.466-0.379-7.953-7.195c1.893-8.52,14.577-22.908,21.203-24.043c6.629-1.136,6.629,3.976,4.922,4.353
			c-1.513,0-13.25,6.818-18.551,14.012c-4.354,6.058-6.626,10.79,1.134,8.139c9.845-4.353,24.235-21.391,26.317-24.042
			c2.271-3.407,6.057-0.379,4.543,2.84c-1.703,3.787-5.681,11.927-6.625,16.659c-0.947,4.543,1.134,4.356,4.732,3.031
			c8.328-3.22,15.143-9.089,17.417-11.17C501.649,256.579,506.95,255.443,504.11,259.229z"/>
		<path fill="#FFFFFF" d="M514.523,227.804c2.461-5.112,4.164-9.088,4.733-10.224c2.84-6.058,2.271-7.194,3.408-8.898
			c1.135-1.515,5.302,0.568,4.733,4.544c-0.19,1.893-3.22,8.329-6.439,14.388c3.789,0.189,8.899-1.894,10.982-3.786
			c2.081-1.895,6.436-0.759,3.219,2.65c-2.461,2.65-11.74,5.68-16.473,5.299c-5.111,9.277-6.814,13.064-8.328,15.336
			c-2.081,3.787-12.116,23.476-5.681,24.611c5.491,1.136,17.418-8.142,22.908-14.01c2.838-2.839,6.057-2.271,2.838,1.515
			c-3.405,4.354-16.28,16.849-25.746,16.849c-4.543,0-6.06-2.65-6.06-6.436c0-3.976,1.707-9.466,3.409-14.39
			c1.703-5.489,5.87-14.008,10.413-23.476c-5.491,0-11.36-1.513-13.632-2.838c-3.786-2.271-1.514-4.923,1.517-3.409
			C504.869,227.804,510.17,228.181,514.523,227.804z"/>
		<path fill="#FFFFFF" d="M564.877,258.473c-3.216,5.11-18.172,15.524-27.638,17.605c-5.87,1.704-13.253-0.567-12.306-8.14
			c1.134-8.329,5.298-15.523,11.736-21.204c5.302-4.732,9.467-5.112,12.876-3.976c5.298,1.895,0,12.685-6.819,16.851
			c-3.974,2.271-9.844,3.407-11.357,1.702c-0.568,1.705-1.702,2.084-2.271,6.627c0,4.922,3.22,4.354,6.057,4.354
			c7.196-0.567,23.666-11.17,27.642-15.902C564.688,254.307,565.446,256.959,564.877,258.473z M534.02,256.39
			c1.135,1.704,4.164,1.515,7.005-0.567c3.785-2.65,7.572-7.193,6.246-9.277c-0.945-1.514-6.246,1.894-9.466,4.923
			C535.912,253.172,535.723,253.739,534.02,256.39z"/>
		<path fill="#FFFFFF" d="M608.005,205.464c3.978-5.869,7.194-10.224,8.711-10.98c3.785-2.84,4.922,2.082,2.082,6.058
			c-0.759,0.946-2.082,2.461-3.599,4.543c4.547-0.189,8.71-0.189,11.929-0.189c13.631,0.379,31.996,3.597,30.669,12.116
			c-1.323,8.142-29.724,19.689-31.236,20.258c0.758,0.189,11.168,1.704,22.529,7.762c9.275,4.923,17.982,11.928,14.008,17.985
			c-4.922,8.897-22.339,16.471-35.97,20.255c-13.821,3.977-26.882,6.628-32.373,7.196c-5.49,0.567-9.465-4.355-3.978-8.142
			c5.491-3.977,7.763-4.544,7.763-2.839c0.568,1.136-4.354,3.407-3.216,4.923c0.944,1.136,16.47-0.569,35.021-6.628
			c17.038-5.49,26.693-12.685,28.4-17.037c2.84-6.059-14.578-14.767-27.263-17.986c-19.12-4.354-32.942-3.785-35.594-3.785
			c-1.702,0-2.65-1.138-2.839-2.462c-1.135,1.704-2.083,3.408-3.217,5.11c-12.686,18.743-25.938,42.219-25.938,42.219
			s1.706,0.569,1.138,2.271c-0.568,2.271-5.492,12.116-6.626,13.632c-0.947,2.271-8.141,1.704-3.788-7.573
			c3.788-8.899,20.827-38.432,30.672-52.819c5.487-7.384,13.061-19.689,19.688-29.344c-13.821,0.946-26.693,3.03-32.184,5.301
			c-4.354,1.893-6.06-4.733-1.138-6.058C577.906,207.735,593.808,206.221,608.005,205.464z M596.269,233.861
			c3.978-0.378,11.547,0,20.447,1.137c6.625-1.137,23.095-7.573,31.994-14.389c2.082-1.704,3.219-3.029,3.219-4.354
			c0-2.082-3.408-3.786-12.305-5.489c-5.301-0.948-11.93-1.326-18.935-1.326c-2.839,0-5.866,0-8.896,0.188
			c-4.543,6.438-10.982,15.146-17.229,24.611C595.134,234.052,595.51,233.861,596.269,233.861z"/>
		<path fill="#FFFFFF" d="M677.106,256.2c-2.461,3.599-4.543,10.603-3.975,14.198c0.568,3.219,2.082,5.112,7.005,2.273
			c2.081-1.137,4.543-3.218,7.004-5.49c-0.944-1.326-1.514-3.219-1.323-6.06c0.379-7.761,5.866-17.038,11.926-18.742
			c4.922-1.135,7.763,1.704,7.194,5.491c-0.379,4.544-4.354,11.548-10.225,17.984c1.517,0,3.03-0.378,4.923-0.947
			c5.681-1.513,12.685-6.436,14.956-8.14c2.083-1.135,3.22,1.516,1.703,3.218c-2.271,2.084-10.789,7.573-19.689,9.277
			c-1.893,0.379-3.974,0.757-5.487,0.379c-2.65,2.462-5.87,4.922-8.71,6.626c-2.651,1.325-4.922,1.894-6.625,1.894
			c-3.6,0-5.492-2.461-6.438-7.196c-1.325-7.003,3.219-19.688,9.277-23.095c5.488-2.083,7.005,1.704,5.488,2.839
			C681.839,251.277,678.622,254.118,677.106,256.2z M700.395,248.438c0.378-2.271-1.139-2.841-2.841-1.704
			c-2.65,1.704-8.331,10.034-7.952,14.956c0,1.137,0.38,2.082,0.759,2.651c0.947-0.946,2.081-2.271,3.219-3.597
			C698.312,255.064,699.825,252.226,700.395,248.438z"/>
		<path fill="#FFFFFF" d="M747.342,243.327c-1.703,0.189-10.981,6.815-17.228,14.01c-1.893,1.703-3.596,4.165-5.491,6.246
			c4.922,6.438,18.555,13.632,18.555,10.603c0-3.787,3.975,2.083,0.189,3.408c-4.732,1.704-14.577-3.787-20.637-10.224
			c-5.87,7.573-10.603,14.01-11.357,15.335c-1.138,1.893-4.543,0.566-3.599-2.271c0.948-2.084,6.814-9.654,11.927-16.851
			c-3.976-4.922-6.247-8.707-5.678-13.252c0.944-6.247,7.573-3.218,7.004-1.135c-3.598,3.597-1.326,7.383,1.514,11.169
			c1.516-2.081,3.03-4.354,4.732-6.059c7.194-9.087,17.986-14.197,20.068-13.819C749.233,240.866,749.614,242.759,747.342,243.327z"
			/>
	</g>
</g>
</svg>
