<svg xmlns="http://www.w3.org/2000/svg" width="28" height="28" viewBox="0 0 28 28"><path d="M5.453 9.766v15.484h-5.156v-15.484h5.156zm.328-4.782q.016 1.141-.789 1.906t-2.117.766h-.031q-1.281 0-2.063-.766t-.781-1.906q0-1.156.805-1.914t2.102-.758 2.078.758.797 1.914zm18.219 11.391v8.875h-5.141v-8.281q0-1.641-.633-2.57t-1.977-.93q-.984 0-1.648.539t-.992 1.336q-.172.469-.172 1.266v8.641h-5.141q.031-6.234.031-10.109t-.016-4.625l-.016-.75h5.141v2.25h-.031q.313-.5.641-.875t.883-.812 1.359-.68 1.789-.242q2.672 0 4.297 1.773t1.625 5.195z"/></svg>