<?xml version="1.0" encoding="utf-8"?>
<!-- Generator: Adobe Illustrator 16.0.4, SVG Export Plug-In . SVG Version: 6.00 Build 0)  -->
<!DOCTYPE svg PUBLIC "-//W3C//DTD SVG 1.1//EN" "http://www.w3.org/Graphics/SVG/1.1/DTD/svg11.dtd">
<svg version="1.1" xmlns="http://www.w3.org/2000/svg" xmlns:xlink="http://www.w3.org/1999/xlink" x="0px" y="0px"
	 width="439.929px" height="265.836px" viewBox="0 0 439.929 265.836" enable-background="new 0 0 439.929 265.836"
	 xml:space="preserve">
<g id="Layer_1">
	<path fill="#FFFFFF" d="M74.613,235.322c-0.61,0.203-1.423,0.305-2.44,0.305c-0.406,0-0.831-0.018-1.271-0.051
		c-0.441-0.035-0.899-0.086-1.372-0.152c-0.747-0.204-1.39-0.407-1.932-0.61c-0.543-0.271-1.102-0.525-1.677-0.763
		c-0.577-0.238-1.136-0.525-1.677-0.863c-0.543-0.34-1.118-0.696-1.728-1.067c-0.61-0.374-1.22-0.763-1.83-1.169
		c-1.153-0.745-2.254-1.508-3.304-2.288c-1.052-0.778-2.152-1.608-3.304-2.49c-1.22-0.948-2.288-1.778-3.202-2.49
		c-0.915-0.712-1.712-1.304-2.389-1.779c-0.136-0.135-0.508-0.389-1.118-0.762c-0.61-0.372-1.423-0.931-2.439-1.678
		c-0.747-0.542-1.509-1.151-2.287-1.83c-0.78-0.676-1.576-1.423-2.389-2.236c-0.881-0.812-1.763-1.677-2.643-2.592
		c-0.882-0.915-1.729-1.846-2.542-2.796l-8.042-9.453c-2.704-3.116-4.835-6.674-6.393-10.674c-0.137-0.338-0.305-0.575-0.508-0.711
		c-0.272-0.136-0.543-0.204-0.813-0.204c-0.137,0-0.543,0.068-1.22,0.204c-0.61,0.203-1.085,0.305-1.423,0.305
		c-1.288,0-2.305-0.981-3.049-2.948c-0.95-2.846-1.423-7.624-1.423-14.333v-0.305c0-1.017,0.508-1.525,1.525-1.525
		c3.116,0,5.658-1.118,7.624-3.354c1.965-2.303,2.948-5.048,2.948-8.233c0-1.896-0.747-3.389-2.236-4.473
		c-1.22-0.813-2.881-1.221-4.981-1.221c-1.83,0-3.456,0.238-4.879,0.713c-1.56,0.406-2.779,0.982-3.659,1.728
		c-0.543,0.543-0.95,1.829-1.22,3.862c-0.136,1.018-0.391,2.068-0.762,3.151c-0.373,1.085-0.864,2.203-1.474,3.354
		c-0.136,0.34-0.34,0.646-0.61,0.915c-0.137,0.137-0.238,0.238-0.305,0.305c-0.068,0.068-0.137,0.137-0.204,0.204
		c-0.068,0-0.17,0.068-0.305,0.203c0,0.068,0.102,0.238,0.305,0.508c0.27,0.271,0.474,0.441,0.61,0.509
		c0.338,0.34,0.61,1.593,0.813,3.761c0.135,1.085,0.203,2.271,0.203,3.558c0,1.288,0,2.712,0,4.27c0,1.898,0,3.796,0,5.692
		c0,1.83-0.068,3.729-0.203,5.693c-0.068,1.966-0.137,3.812-0.203,5.54c-0.068,1.728-0.17,3.372-0.305,4.93
		c-0.068,3.187-0.17,4.778-0.305,4.778v8.64c-0.136,4.473-0.203,7.896-0.203,10.268c0,2.305,0,3.659,0,4.065
		c-0.068,0.204-0.305,0.407-0.711,0.61c-0.407,0.137-0.78,0.203-1.118,0.203c-0.678,0-1.255-0.102-1.728-0.305
		C0.27,230.104,0,229.935,0,229.73v-27.954v-27.954c0-1.084,0.271-2.812,0.816-5.185c0.135-0.542,0.271-0.981,0.408-1.321
		c0.067-0.339,0.271-0.677,0.611-1.017l1.123-1.627v-0.203c-0.137-0.066-0.375-0.102-0.715-0.102H1.836
		c-0.068,0-0.17-0.066-0.305-0.203c0.271-1.22,0.526-2.354,0.764-3.405c0.238-1.051,0.527-2.016,0.868-2.897
		c0.34-0.88,0.697-1.677,1.072-2.389c0.374-0.712,0.799-1.337,1.275-1.881c0.952-1.179,2.278-2.118,3.979-2.819
		c0.816-0.35,1.666-0.578,2.551-0.683c0.883-0.104,1.803-0.157,2.756-0.157c1.699,0,3.434,0.203,5.203,0.609
		c1.292,0.205,2.618,0.611,3.979,1.222c2.244,1.021,3.367,3.122,3.367,6.311c0,4.411-0.912,7.702-2.733,9.871
		c-0.89,1.02-2.011,1.97-3.366,2.852c-0.678,0.475-1.153,0.916-1.423,1.323c-0.271,0.34-0.407,0.881-0.407,1.628v0.406
		c0,2.443,0.745,4.614,2.236,6.514c0.745,0.95,1.408,1.866,1.986,2.748c0.578,0.883,1.077,1.765,1.499,2.646
		c2.962,6.038,5.121,10.314,6.478,12.823c1.016,1.833,1.558,2.748,1.626,2.748v-0.713h0.203c0.407,0.95,0.711,1.46,0.915,1.526
		c2.506,2.85,5.047,5.394,7.624,7.634c2.44,2.239,5.185,4.478,8.234,6.717c0.813,0.611,1.678,1.29,2.592,2.036
		c0.915,0.746,1.947,1.526,3.101,2.34c1.83,1.426,3.761,2.851,5.794,4.274c0.948,0.746,1.932,1.459,2.948,2.138
		c1.017,0.68,1.998,1.357,2.948,2.036c0.203,0.137,0.407,0.289,0.61,0.457c0.204,0.17,0.44,0.322,0.712,0.458
		c0.473,0.272,1.151,0.578,2.033,0.916c1.49,0.542,2.676,1.151,3.558,1.831c0.745,0.544,1.118,0.983,1.118,1.323
		C75.63,234.88,75.29,235.118,74.613,235.322z"/>
	<path fill="#FFFFFF" d="M82.403,214.972c-0.882,0.407-1.865,0.712-2.948,0.915c-1.017,0.271-2.236,0.407-3.659,0.407
		c-0.475,0-0.915-0.017-1.322-0.051c-0.407-0.035-0.78-0.088-1.118-0.157c-0.813-0.137-1.56-0.38-2.236-0.727
		c-0.407-0.206-0.61-0.829-0.61-1.867c0-1.105-0.238-1.729-0.711-1.868l-3.151,1.037c-0.543,0-0.95-0.517-1.22-1.552
		c-0.137-0.339-0.221-0.626-0.254-0.864c-0.035-0.236-0.119-0.524-0.254-0.864c-0.34-0.812-0.543-1.626-0.61-2.439
		c-0.068-0.406-0.119-0.796-0.153-1.169c-0.035-0.372-0.051-0.728-0.051-1.067v-0.915c0-0.473,0.067-0.88,0.204-1.22
		c0.27-0.948,0.846-1.795,1.728-2.541c0.813-0.677,1.998-1.287,3.558-1.83c0.813-0.203,1.388-0.305,1.728-0.305l0.305,0.203
		c-0.068,0.203-0.407,0.543-1.017,1.017c-0.678,0.543-1.237,0.983-1.677,1.321c-0.441,0.34-0.797,0.679-1.067,1.017
		c-0.543,0.543-0.813,1.153-0.813,1.83c0,1.626,0.168,2.881,0.508,3.761c0.406,0.882,1.083,1.695,2.033,2.439
		c0.338,0.204,0.593,0.374,0.763,0.509c0.168,0.137,0.321,0.238,0.457,0.305c0.338,0.203,0.694,0.355,1.067,0.458
		c0.372,0.102,0.796,0.221,1.271,0.355c0.542,0.068,1.032,0.119,1.474,0.152c0.44,0.035,0.864,0.051,1.271,0.051
		c1.693,0,3.185-0.337,4.473-1.01c0.813-0.403,1.626-1.011,2.439-1.82c0.135-0.202,0.204-0.674,0.204-1.415
		c0-0.944-0.137-1.921-0.407-2.931c-0.407-1.011-0.848-1.987-1.321-2.931c-2.17-4.514-4.778-6.772-7.828-6.772l-1.626-0.403
		c-0.543-0.136-1.136-0.237-1.779-0.304c-0.645-0.066-1.339-0.102-2.084-0.102c-1.491,0-2.881,0.203-4.167,0.61
		c-1.356,0.406-2.508,1.084-3.457,2.032c-0.746,0.679-1.339,1.221-1.779,1.627c-0.441,0.406-0.762,0.746-0.966,1.017
		c-1.084,1.491-1.626,3.186-1.626,5.082c0,0.272,0.168,0.915,0.508,1.932c0.407,0.882,0.88,1.661,1.423,2.338
		c0.27,0.271,0.407,0.577,0.407,0.915c0,0.543-0.238,1.017-0.712,1.423c-0.475,0.476-0.95,0.712-1.423,0.712
		c-0.626,0-1.15-0.203-1.571-0.609c-0.491-0.474-0.842-1.186-1.052-2.135c-0.209-0.474-0.314-1.084-0.314-1.83l-0.316-2.236
		c0-2.847,0.735-5.286,2.208-7.319c1.781-2.506,4.603-4.168,8.466-4.98c1.287-0.271,2.643-0.491,4.066-0.661
		c1.423-0.168,2.981-0.254,4.676-0.254c4.676,0,8.097,1.694,10.267,5.082c2.236,3.457,3.354,7.286,3.354,11.487
		C85.96,211.381,84.774,213.752,82.403,214.972z"/>
	<path fill="#FFFFFF" d="M119.757,207.128c-1.085,1.085-2.119,2.102-3.101,3.05c-0.983,0.95-1.949,1.898-2.897,2.847
		c-1.22,1.152-2.287,2.135-3.202,2.947c-0.915,0.813-1.644,1.457-2.186,1.932c-0.136,0.135-0.271,0.271-0.406,0.406
		c-0.137,0.136-0.272,0.271-0.407,0.407l-0.305,0.305c-0.678,1.083-1.288,2.033-1.83,2.847c-0.543,0.812-1.051,1.558-1.525,2.236
		l-3.354,4.879c-0.747,1.083-1.407,1.998-1.982,2.745c-0.576,0.744-1.067,1.286-1.474,1.626c-0.543,0.542-1.288,1.202-2.236,1.982
		c-0.95,0.778-2.17,1.711-3.66,2.795l-2.439,2.44c-0.61,0.609-1.118,1.017-1.525,1.22c-1.626,1.017-3.083,2.066-4.371,3.151
		c-0.61,0.473-1.203,0.948-1.779,1.423c-0.575,0.474-1.169,0.981-1.779,1.524c-0.066,0.136-0.27,0.204-0.61,0.204
		c-0.203,0-0.406-0.103-0.61-0.306c-0.27-0.271-0.508-0.543-0.711-0.813c-0.135-0.271-0.204-0.441-0.204-0.508
		c0-0.068,0.035-0.102,0.102-0.102v-0.102c1.288-0.747,2.406-1.458,3.354-2.135c0.95-0.679,1.695-1.288,2.236-1.83l3.354-3.659
		c0.747-0.543,1.406-1.017,1.982-1.423c0.575-0.407,1.067-0.78,1.474-1.118c1.152-0.95,2.202-2,3.151-3.151v-0.102h0.102
		c0.067,0,0.168,0.066,0.305,0.203c0.066,0.066,0.203,0.102,0.406,0.102c0.474,0,1.083-0.373,1.83-1.118
		c0.203-0.137,0.44-0.355,0.711-0.661c0.27-0.305,0.575-0.627,0.915-0.966c0.135-0.271,0.27-0.508,0.407-0.711
		c0.135-0.203,0.27-0.373,0.406-0.509c0.135-0.137,0.288-0.305,0.458-0.508c0.168-0.203,0.321-0.441,0.458-0.712l3.456-4.676
		c1.22-1.627,1.83-2.881,1.83-3.761c0-0.679,0.168-1.322,0.508-1.932c0.204-0.34,0.407-0.679,0.61-1.017
		c0.203-0.34,0.406-0.679,0.61-1.017c-0.204-0.203-0.493-0.458-0.864-0.763c-0.373-0.305-0.831-0.66-1.372-1.067l-2.847-2.033
		c-0.95-0.609-1.694-1.388-2.236-2.338c-0.475-0.88-0.711-1.931-0.711-3.151v-0.609c0-0.203,0.033-0.339,0.102-0.407
		c-0.137-0.066-0.289-0.135-0.458-0.203c-0.17-0.066-0.424-0.168-0.762-0.305c-0.34-0.135-0.645-0.254-0.915-0.355
		c-0.271-0.102-0.543-0.22-0.813-0.356c-1.017-0.473-1.525-0.948-1.525-1.423c0-0.203,0.033-0.372,0.102-0.508
		c0.27-0.339,0.575-0.509,0.915-0.509c0.27,0,0.44,0.035,0.508,0.102c0.135,0,0.219,0.018,0.254,0.051
		c0.034,0.035,0.118,0.051,0.254,0.051c0.203,0,0.372-0.203,0.508-0.609c0.066-0.407,0.372-0.677,0.915-0.813
		c1.083,0,2.542,1.255,4.371,3.761c0.27,0.341,0.508,0.679,0.712,1.017c0.203,0.34,0.44,0.679,0.711,1.017
		c0.203,0.34,0.422,0.696,0.661,1.067c0.237,0.373,0.491,0.729,0.763,1.067c0.406,0.679,0.864,1.321,1.372,1.932
		s1.067,1.255,1.677,1.932c0.338-0.135,0.626-0.22,0.864-0.254c0.236-0.034,0.422-0.085,0.559-0.153
		c1.017-0.203,1.591-0.439,1.728-0.711c0.27-0.407,1.083-0.948,2.439-1.627c1.287-0.677,2.202-1.456,2.745-2.338
		c0.338-0.677,0.593-1.253,0.763-1.728c0.168-0.474,0.321-0.847,0.457-1.118c0.474-0.948,1.152-1.525,2.033-1.729
		c0.745-0.135,1.795-0.677,3.151-1.627c0.677-0.338,1.151-0.508,1.423-0.508c0.473,0,0.711,0.373,0.711,1.118
		C124.027,202.182,122.604,204.078,119.757,207.128z"/>
	<path fill="#FFFFFF" d="M169.235,221.832c-0.034,0.033-0.051,0.084-0.051,0.152c-0.136,0.27-0.203,0.473-0.203,0.609
		c0,0.135-0.018,0.237-0.051,0.305c-0.035,0.067-0.051,0.136-0.051,0.204c-0.746,0.203-1.39,0.305-1.932,0.305
		c-1.084,0-1.626-0.441-1.626-1.321c0-0.34,0-0.679,0-1.017c0-0.407-0.035-0.778-0.102-1.118c-0.137-0.677-0.34-1.49-0.61-2.439
		l-0.915-2.135l-0.305-2.338c0-0.948,0.016-1.982,0.051-3.101c0.033-1.118,0.084-2.321,0.152-3.609
		c0.204-6.099,0.306-9.962,0.306-11.588c0-1.49-0.018-2.897-0.051-4.219c-0.035-1.321-0.086-2.626-0.153-3.914
		c-0.136-1.22-0.271-2.506-0.406-3.862c-0.137-1.354-0.34-2.812-0.609-4.371l-0.407-6.506l-0.305-2.744v-4.981v-0.406
		c0-0.407,0-0.778,0-1.118c0-0.407,0.033-0.745,0.102-1.017c0-0.677,0.102-1.49,0.305-2.44c0.067-1.016,0.407-1.524,1.017-1.524
		c1.355,0.271,2.236,2.102,2.644,5.489c0.338,3.39,0.66,6.592,0.965,9.606c0.306,3.016,0.524,5.845,0.661,8.488
		c0.406,5.285,0.61,9.453,0.61,12.503c0,1.966-0.102,3.897-0.306,5.794c-0.203,1.898-0.475,3.762-0.812,5.591
		c-0.407,1.83-0.61,3.456-0.61,4.88c0,0.746,0.051,1.626,0.152,2.643s0.22,2.135,0.356,3.354c0,0.61,0.406,1.627,1.22,3.05
		c0.338,0.61,0.592,1.118,0.762,1.524c0.169,0.407,0.255,0.778,0.255,1.118C169.287,221.746,169.27,221.797,169.235,221.832z"/>
	<path fill="#FFFFFF" d="M270.507,228.343c-0.197,0.271-0.459,0.406-0.786,0.406c-0.395,0-0.821-0.168-1.279-0.508
		c-0.462-0.406-0.692-0.813-0.692-1.22c0.066-0.271,0.102-0.575,0.102-0.915c0-0.677-0.271-2.033-0.812-4.066
		c-0.341-1.017-0.56-1.88-0.661-2.592s-0.152-1.304-0.152-1.779c-0.543-3.456-1.034-6.641-1.475-9.555
		c-0.441-2.913-0.83-5.625-1.169-8.133c-0.34-1.829-0.645-3.776-0.914-5.845c-0.272-2.066-0.577-4.219-0.915-6.455
		c-0.61-4.539-1.017-7.487-1.22-8.844c-0.272-1.626-0.476-3.304-0.61-5.032c-0.137-1.728-0.203-3.54-0.203-5.438
		c0-0.474,0.016-0.966,0.051-1.475c0.033-0.508,0.084-1.032,0.152-1.575c0.135-1.355,0.254-2.354,0.355-2.999
		c0.102-0.643,0.153-1.032,0.153-1.169h-1.221c-0.271,0-1.084,1.187-2.439,3.558c-0.271,0.34-0.559,0.813-0.864,1.423
		c-0.305,0.61-0.695,1.289-1.169,2.033c-0.137,0.476-0.289,0.983-0.457,1.525c-0.17,0.543-0.391,1.118-0.661,1.728
		c-0.203,0.61-0.406,1.204-0.609,1.779c-0.203,0.576-0.407,1.136-0.61,1.677c-0.203,0.544-0.457,1.288-0.762,2.236
		c-0.306,0.95-0.661,2.135-1.067,3.559c-0.544,1.763-1.017,3.253-1.424,4.473c-0.406,1.22-0.678,2.17-0.812,2.846
		c-0.476,1.967-1.492,5.659-3.051,11.08c-1.491,5.151-2.609,9.388-3.354,12.707c-1.084,4.744-1.626,8.945-1.626,12.605
		c0,1.22-0.34,2.508-1.017,3.862c-0.678,1.356-1.255,2.576-1.729,3.659c-0.475,1.084-0.848,1.998-1.118,2.745
		c-0.406,0.813-0.848,1.22-1.321,1.22c-0.271,0-0.645-0.203-1.118-0.61c-1.288-0.881-2.305-3.185-3.05-6.912
		c-0.271-1.354-0.457-2.71-0.559-4.066c-0.102-1.354-0.152-2.709-0.152-4.065c-0.068-0.339-0.102-0.813-0.102-1.424v-2.439
		c0-3.93-0.203-7.589-0.61-10.979c-0.34-2.846-0.864-5.878-1.575-9.098c-0.712-3.218-1.543-6.658-2.491-10.317
		c-1.763-6.845-3.016-10.707-3.761-11.589c-0.271-0.135-0.441-0.203-0.508-0.203c-0.204,0-0.341,0.035-0.407,0.102v0.102
		l-0.203,12.097v4.066v2.846c0,0.476,0.016,0.983,0.051,1.525c0.033,0.543,0.051,1.118,0.051,1.728v1.627
		c0,1.763-0.018,3.39-0.051,4.879c-0.035,1.491-0.086,2.882-0.152,4.168c-0.137,3.05-0.34,6.777-0.61,11.182
		c-0.203,2.236-0.441,4.523-0.711,6.861c-0.271,2.339-0.577,4.762-0.915,7.269v0.406c0,0.339,0.033,0.61,0.102,0.813v0.915v0.203
		c0,0.474-0.102,0.847-0.305,1.118c-0.203,0.271-0.61,0.509-1.22,0.712c-0.204,0-0.646-0.543-1.322-1.627
		c-0.609-1.085-0.914-1.829-0.914-2.236c0-1.558,0.033-3.218,0.102-4.98c0.066-1.762,0.168-3.625,0.305-5.591
		c0.203-3.456,0.371-6.268,0.508-8.438c0.136-2.168,0.204-3.727,0.204-4.676c0.135-3.32,0.236-6.979,0.305-10.979
		c0.066-3.998,0.102-8.402,0.102-13.215c0-0.542,0-1.287,0-2.236c0-1.017-0.035-2.202-0.102-3.559c0-1.354-0.018-2.404-0.051-3.15
		c-0.035-0.745-0.051-1.186-0.051-1.322v-1.524c0-2.168,0.051-4.303,0.152-6.404c0.102-2.1,0.32-4.133,0.66-6.1
		c0.067-0.609,0.136-1.15,0.204-1.626c0.066-0.474,0.203-0.88,0.406-1.22c0.271-0.609,0.712-0.915,1.321-0.915
		c0.745,0,1.457,0.442,2.135,1.321c0.677,0.747,1.118,1.695,1.321,2.847c0.136,0.747,0.237,1.321,0.306,1.728
		c0.066,0.407,0.102,0.646,0.102,0.712c0.066,0.407,0.135,0.763,0.203,1.067c0.066,0.305,0.168,0.594,0.305,0.864l3.354,11.182
		c0.136,1.763,0.423,3.456,0.864,5.083c0.44,1.626,1.032,3.287,1.779,4.98c0.473,1.085,1.083,4.305,1.829,9.657
		c0.339,2.711,0.694,5.372,1.067,7.979c0.372,2.61,0.728,5.202,1.067,7.776c0.407,3.118,0.796,5.762,1.169,7.93
		c0.372,2.169,0.728,3.862,1.067,5.082c0.067,0,0.237-0.066,0.509-0.203c0.609-1.083,0.915-2.033,0.915-2.847v-0.203
		c0-0.541,0.135-1.489,0.406-2.846c0.27-1.355,0.677-3.151,1.22-5.388c0.542-2.236,1.083-4.455,1.627-6.658
		c0.541-2.202,1.083-4.422,1.626-6.658c0.677-2.847,1.235-5.302,1.678-7.37c0.439-2.066,0.795-3.744,1.067-5.032
		c0.066-0.676,0.676-3.726,1.829-9.148c0.339-1.896,0.677-3.573,1.017-5.032c0.339-1.456,0.644-2.727,0.915-3.812
		c0.677-2.71,1.321-4.066,1.932-4.066c0.406,0,1.286-1.286,2.643-3.862c0.542-0.948,1.118-2.033,1.729-3.253
		s1.253-2.507,1.932-3.862c0.338-0.678,0.66-1.338,0.966-1.982c0.305-0.644,0.592-1.305,0.863-1.982
		c0.474-0.949,0.915-1.812,1.322-2.592c0.406-0.779,0.88-1.475,1.423-2.084c0.474-0.61,0.778-1.018,0.915-1.221
		c0.406-0.406,0.745-0.609,1.017-0.609c0.338,0,0.609,0.34,0.812,1.016c0.204,0.747,0.306,1.865,0.306,3.355v0.406
		c0,0.34,0,0.813,0,1.424c0,0.543,0.033,1.219,0.102,2.033c0.066,0.881,0.102,1.559,0.102,2.032c0,0.476,0,0.78,0,0.915
		c0,1.085,0.016,2.355,0.051,3.812c0.033,1.457,0.084,3.1,0.152,4.93c0.066,3.796,0.168,7.049,0.305,9.759
		c0.067,1.356,0.101,2.711,0.101,4.065c0,1.289,0,2.542,0,3.762c0,1.085,0.066,2.084,0.2,2.999c0.133,0.914,0.3,1.813,0.5,2.693
		c0.867,3.456,1.468,6.065,1.801,7.827c0.466,2.508,0.899,5.474,1.3,8.895c0.4,3.423,0.801,7.37,1.2,11.843
		c0.067,0.747,0.149,1.524,0.25,2.338c0.1,0.813,0.251,1.695,0.451,2.644c0.2,0.949,0.333,1.745,0.4,2.389
		c0.066,0.645,0.1,1.103,0.1,1.372v1.932C270.9,227.463,270.769,227.937,270.507,228.343z"/>
	<path fill="#FFFFFF" d="M317.676,214.816c-0.137,0.204-0.34,0.372-0.609,0.509l-0.61,0.203c-0.068,0-0.203-0.102-0.406-0.305
		c-0.137-0.137-0.271-0.238-0.407-0.306c-0.068,0-0.136,0.067-0.203,0.204v0.711l-0.406,0.102l-0.407-1.728l-0.812-5.083
		c-0.271-1.423-0.492-2.761-0.661-4.015c-0.17-1.254-0.322-2.456-0.457-3.609c-0.137-1.151-0.238-2.219-0.306-3.202
		c-0.067-0.981-0.102-1.947-0.102-2.896c0-0.677,0.306-1.389,0.915-2.135c0.474-0.677,0.981-1.017,1.525-1.017l0.305,2.744
		c0.338,2.033,0.644,3.932,0.915,5.693c0.27,1.763,0.541,3.389,0.812,4.879c0.339,2.17,0.593,3.897,0.763,5.185
		c0.169,1.288,0.254,2.101,0.254,2.439c0,0.068,0.067,0.168,0.204,0.305v0.407C317.981,214.24,317.879,214.545,317.676,214.816z"/>
	<path fill="#FFFFFF" d="M333.118,229.217c-0.035,0.033-0.051,0.084-0.051,0.152c-0.137,0.27-0.203,0.473-0.203,0.609
		c0,0.135-0.018,0.237-0.051,0.305c-0.035,0.067-0.051,0.136-0.051,0.204c-0.747,0.203-1.39,0.305-1.932,0.305
		c-1.085,0-1.626-0.441-1.626-1.321c0-0.34,0-0.679,0-1.017c0-0.407-0.035-0.778-0.102-1.118c-0.137-0.677-0.34-1.49-0.61-2.439
		l-0.915-2.135l-0.305-2.338c0-0.948,0.016-1.982,0.051-3.101c0.033-1.118,0.084-2.321,0.152-3.609
		c0.203-6.099,0.305-9.962,0.305-11.588c0-1.49-0.018-2.897-0.051-4.219c-0.034-1.321-0.085-2.626-0.152-3.914
		c-0.137-1.22-0.271-2.506-0.406-3.862c-0.137-1.354-0.34-2.812-0.61-4.371l-0.406-6.506l-0.305-2.744v-4.981v-0.406
		c0-0.407,0-0.778,0-1.118c0-0.407,0.033-0.745,0.102-1.017c0-0.677,0.102-1.49,0.305-2.44c0.066-1.016,0.406-1.524,1.017-1.524
		c1.354,0.271,2.236,2.102,2.643,5.489c0.339,3.39,0.661,6.592,0.966,9.606c0.305,3.016,0.524,5.845,0.661,8.488
		c0.406,5.285,0.609,9.453,0.609,12.503c0,1.966-0.102,3.897-0.305,5.794c-0.203,1.898-0.475,3.762-0.813,5.591
		c-0.406,1.83-0.609,3.456-0.609,4.88c0,0.746,0.051,1.626,0.152,2.643s0.219,2.135,0.355,3.354c0,0.61,0.407,1.627,1.22,3.05
		c0.339,0.61,0.593,1.118,0.763,1.524c0.168,0.407,0.254,0.778,0.254,1.118C333.169,229.131,333.151,229.182,333.118,229.217z"/>
	<path fill="#FFFFFF" d="M150.724,205.77c0,0,0.834-6.599,2.521-11.279l-4.292-0.441c0.081,0.303-0.148,3.127-0.5,3.438
		l-2.791-0.612l-4.28-0.883c-0.92-0.189-1.528-0.266-1.822-0.232c-0.59,0.071-1.135,0.152-1.632,0.239
		c-0.813,0.219-1.645,0.404-2.491,0.565c-0.851,0.164-1.67,0.304-2.462,0.429c-1.219,0.324-1.793,1.238-1.764,1.577
		c0.023,0.347-0.179,2.967-0.149,4.216c0.146,3.485,2.515,6.18,7.112,8.088c0.165,0.127,2.003,0.507,2.485,0.51
		c0.956,0.007,1.685-0.035,2.184-0.126c0.774-0.031,1.392-0.001,1.851,0.095c1.382,0.282,2.702,1.088,3.968,2.399
		c0.933,1.058,0.728,1.412,0.499,2.519c-0.113,0.552-1.658,2.095-1.75,2.312c-0.095,0.222,2.186,5.523,2.375,5.562
		c0.455-0.289,2.635-3.778,2.938-5.25c0.057-0.755,0.678-4.358,0.688-5.125c0.009-0.764-2.14-1.489-2.5-2.5
		C149.945,208.556,149.849,208.332,150.724,205.77z M147.527,204.235c-0.039,0.425-0.015,0.888,0.076,1.382
		c-0.169,0.352-0.32,0.849-0.451,1.492l-0.283,1.382c-0.21,1.011-0.593,1.699-1.146,2.063c-0.629,0.255-1.171,0.336-1.632,0.241
		c-0.462-0.098-0.985-0.348-1.571-0.756c-0.424-0.279-0.787-0.496-1.089-0.659c-0.306-0.154-0.537-0.3-0.702-0.432l-1.296-0.698
		l-1.381-0.28c-0.108-0.407-1.406-2.021-1.59-2.058c-0.275-0.056-0.625-0.464-1.044-1.222c-0.147-0.222-0.287-0.466-0.423-0.734
		c-0.139-0.267-0.279-0.512-0.425-0.735c-0.256-0.147-0.337-0.45-0.243-0.914c0.056-0.275,0.135-0.544,0.24-0.812
		c0.101-0.268,0.237-0.575,0.405-0.923c0.465-0.863,1.986-1.271,4.566-1.22c1.438,0.009,2.479,0.077,3.125,0.211
		c1.009,0.207,1.765,0.507,2.259,0.898l0.305-0.08c1.012,0.205,1.733,1.122,2.168,2.746
		C147.521,203.444,147.566,203.814,147.527,204.235z"/>
	<path fill="#FFFFFF" d="M298.338,205.526c0,0,0.834-6.599,2.521-11.279l-4.292-0.441c0.082,0.303-0.148,3.127-0.5,3.438
		l-2.791-0.612l-4.279-0.883c-0.92-0.189-1.528-0.266-1.822-0.232c-0.59,0.071-1.135,0.152-1.632,0.239
		c-0.813,0.219-1.646,0.404-2.491,0.565c-0.851,0.164-1.67,0.304-2.462,0.429c-1.219,0.324-1.793,1.238-1.765,1.577
		c0.023,0.347-0.178,2.967-0.148,4.216c0.146,3.485,2.515,6.18,7.112,8.088c0.165,0.127,2.003,0.507,2.485,0.51
		c0.955,0.007,1.685-0.035,2.184-0.126c0.773-0.031,1.392-0.001,1.852,0.095c1.381,0.282,2.701,1.088,3.967,2.399
		c0.934,1.058,0.729,1.412,0.5,2.519c-0.113,0.552-1.658,2.095-1.75,2.312c-0.096,0.222,2.186,5.523,2.375,5.562
		c0.455-0.289,2.635-3.778,2.938-5.25c0.057-0.755,0.678-4.358,0.688-5.125c0.009-0.764-2.141-1.489-2.5-2.5
		C297.559,208.312,297.463,208.089,298.338,205.526z M295.141,203.992c-0.039,0.425-0.016,0.888,0.076,1.382
		c-0.169,0.352-0.32,0.849-0.451,1.492l-0.283,1.382c-0.211,1.011-0.593,1.699-1.146,2.063c-0.629,0.255-1.171,0.336-1.631,0.241
		c-0.463-0.098-0.985-0.348-1.572-0.756c-0.424-0.279-0.786-0.496-1.088-0.659c-0.307-0.154-0.537-0.3-0.703-0.432l-1.295-0.698
		l-1.382-0.28c-0.108-0.407-1.406-2.021-1.59-2.058c-0.274-0.056-0.624-0.464-1.044-1.222c-0.147-0.222-0.287-0.466-0.424-0.734
		c-0.139-0.267-0.279-0.512-0.425-0.735c-0.257-0.147-0.337-0.45-0.243-0.914c0.057-0.275,0.135-0.544,0.24-0.812
		c0.102-0.268,0.238-0.575,0.406-0.923c0.465-0.863,1.986-1.271,4.566-1.22c1.438,0.009,2.479,0.077,3.125,0.211
		c1.009,0.207,1.765,0.507,2.259,0.898l0.306-0.08c1.012,0.205,1.732,1.122,2.168,2.746
		C295.135,203.201,295.18,203.571,295.141,203.992z"/>
	<g>
		<path fill="#FFFFFF" d="M138.005,255.866c1.375,0,2.566,0.47,3.574,1.409c1.008,0.94,1.512,2.113,1.512,3.52
			c0,1.448-0.508,2.65-1.523,3.606c-1.016,0.957-2.245,1.435-3.688,1.435c-1.458,0-2.684-0.466-3.676-1.399
			c-0.992-0.933-1.488-2.14-1.488-3.621c0-1.514,0.573-2.749,1.719-3.705C135.429,256.28,136.619,255.866,138.005,255.866z
			 M137.856,256.379c-0.948,0-1.708,0.316-2.281,0.949c-0.714,0.788-1.07,1.94-1.07,3.46c0,1.556,0.37,2.754,1.109,3.593
			c0.567,0.638,1.317,0.956,2.25,0.956c0.995,0,1.816-0.35,2.465-1.048s0.973-1.8,0.973-3.305c0-1.631-0.357-2.848-1.07-3.649
			C139.658,256.698,138.867,256.379,137.856,256.379z"/>
		<path fill="#FFFFFF" d="M155.497,256.084h2.875l6.477,7.15v-5.498c0-0.586-0.073-0.952-0.219-1.097
			c-0.193-0.197-0.498-0.296-0.914-0.296h-0.367v-0.26h3.688v0.26h-0.375c-0.448,0-0.766,0.122-0.953,0.366
			c-0.115,0.149-0.172,0.492-0.172,1.026v8.036h-0.281l-6.984-7.678v5.871c0,0.586,0.07,0.951,0.211,1.097
			c0.198,0.197,0.502,0.296,0.914,0.296h0.375v0.26h-3.688v-0.26h0.367c0.453,0,0.773-0.122,0.961-0.366
			c0.114-0.149,0.172-0.492,0.172-1.026v-6.631c-0.308-0.323-0.541-0.536-0.699-0.64c-0.159-0.103-0.392-0.199-0.699-0.288
			c-0.151-0.042-0.38-0.063-0.688-0.063V256.084z"/>
		<path fill="#FFFFFF" d="M202.599,255.866v3.297h-0.289c-0.094-0.633-0.262-1.137-0.504-1.512s-0.587-0.672-1.035-0.893
			c-0.448-0.221-0.912-0.33-1.391-0.33c-0.542,0-0.99,0.148-1.344,0.446c-0.354,0.298-0.531,0.636-0.531,1.016
			c0,0.291,0.112,0.556,0.336,0.795c0.323,0.352,1.091,0.82,2.305,1.406c0.989,0.478,1.665,0.845,2.027,1.101
			c0.362,0.255,0.641,0.557,0.836,0.903s0.293,0.71,0.293,1.09c0,0.722-0.312,1.344-0.934,1.866
			c-0.623,0.523-1.423,0.784-2.402,0.784c-0.308,0-0.597-0.021-0.867-0.063c-0.162-0.023-0.496-0.108-1.004-0.256
			c-0.508-0.148-0.83-0.222-0.965-0.222c-0.13,0-0.233,0.035-0.309,0.105c-0.076,0.07-0.132,0.216-0.168,0.436h-0.289v-3.27h0.289
			c0.135,0.685,0.317,1.196,0.547,1.536c0.229,0.34,0.579,0.623,1.051,0.848c0.471,0.225,0.988,0.338,1.551,0.338
			c0.651,0,1.165-0.155,1.543-0.465c0.377-0.309,0.566-0.675,0.566-1.097c0-0.234-0.072-0.471-0.215-0.71
			c-0.144-0.239-0.366-0.462-0.668-0.668c-0.203-0.141-0.758-0.439-1.664-0.896s-1.551-0.821-1.934-1.094
			c-0.383-0.271-0.673-0.571-0.871-0.899c-0.198-0.328-0.297-0.689-0.297-1.083c0-0.685,0.292-1.273,0.875-1.769
			c0.583-0.494,1.325-0.741,2.227-0.741c0.562,0,1.159,0.124,1.789,0.372c0.292,0.117,0.497,0.176,0.617,0.176
			c0.135,0,0.246-0.036,0.332-0.108c0.086-0.073,0.155-0.22,0.207-0.439H202.599z"/>
		<path fill="#FFFFFF" d="M219.442,261.153v2.777c0,0.6,0.073,0.973,0.219,1.118c0.198,0.206,0.497,0.31,0.898,0.31h0.406v0.26
			h-4.539v-0.26h0.398c0.448,0,0.768-0.132,0.961-0.395c0.104-0.145,0.156-0.489,0.156-1.033v-6.159c0-0.601-0.07-0.973-0.211-1.118
			c-0.203-0.206-0.505-0.31-0.906-0.31h-0.398v-0.26h3.883c0.948,0,1.695,0.088,2.242,0.264s1.008,0.472,1.383,0.89
			c0.375,0.417,0.562,0.911,0.562,1.483c0,0.778-0.285,1.411-0.855,1.898s-1.376,0.731-2.418,0.731c-0.255,0-0.531-0.017-0.828-0.05
			C220.099,261.269,219.781,261.219,219.442,261.153z M219.442,260.753c0.276,0.047,0.521,0.082,0.734,0.105
			c0.213,0.023,0.396,0.035,0.547,0.035c0.542,0,1.009-0.189,1.402-0.566s0.59-0.866,0.59-1.466c0-0.413-0.094-0.796-0.281-1.149
			c-0.188-0.354-0.453-0.619-0.797-0.795s-0.734-0.264-1.172-0.264c-0.266,0-0.607,0.045-1.023,0.134V260.753z"/>
		<path fill="#FFFFFF" d="M240.403,256.604v3.769h2.328c0.604,0,1.008-0.082,1.211-0.246c0.271-0.216,0.422-0.596,0.453-1.14h0.289
			v3.319h-0.289c-0.073-0.464-0.146-0.762-0.219-0.894c-0.094-0.164-0.247-0.293-0.461-0.387s-0.542-0.141-0.984-0.141h-2.328v3.144
			c0,0.422,0.021,0.679,0.062,0.77c0.042,0.092,0.114,0.164,0.219,0.218c0.104,0.055,0.302,0.081,0.594,0.081h1.797
			c0.599,0,1.034-0.037,1.305-0.112s0.531-0.223,0.781-0.443c0.323-0.29,0.653-0.729,0.992-1.314h0.312l-0.914,2.391h-8.164v-0.26
			h0.375c0.25,0,0.487-0.055,0.711-0.162c0.167-0.075,0.28-0.188,0.34-0.338c0.06-0.149,0.09-0.457,0.09-0.921v-6.194
			c0-0.604-0.067-0.978-0.203-1.118c-0.188-0.188-0.5-0.281-0.938-0.281h-0.375v-0.26h8.164l0.117,2.088h-0.305
			c-0.109-0.501-0.23-0.846-0.363-1.033s-0.329-0.331-0.59-0.429c-0.208-0.07-0.575-0.105-1.102-0.105H240.403z"/>
		<path fill="#FFFFFF" d="M258.622,256.084h2.875l6.477,7.15v-5.498c0-0.586-0.073-0.952-0.219-1.097
			c-0.192-0.197-0.497-0.296-0.914-0.296h-0.367v-0.26h3.688v0.26h-0.375c-0.448,0-0.766,0.122-0.953,0.366
			c-0.114,0.149-0.172,0.492-0.172,1.026v8.036h-0.281l-6.984-7.678v5.871c0,0.586,0.07,0.951,0.211,1.097
			c0.198,0.197,0.503,0.296,0.914,0.296h0.375v0.26h-3.688v-0.26h0.367c0.453,0,0.773-0.122,0.961-0.366
			c0.114-0.149,0.172-0.492,0.172-1.026v-6.631c-0.308-0.323-0.54-0.536-0.699-0.64c-0.159-0.103-0.392-0.199-0.699-0.288
			c-0.151-0.042-0.38-0.063-0.688-0.063V256.084z"/>
		<path fill="#FFFFFF" d="M292.021,255.866l0.242,3.241h-0.242c-0.323-0.971-0.784-1.669-1.383-2.096s-1.317-0.64-2.156-0.64
			c-0.703,0-1.339,0.16-1.906,0.481s-1.015,0.833-1.34,1.536s-0.488,1.578-0.488,2.623c0,0.862,0.153,1.61,0.461,2.243
			s0.77,1.118,1.387,1.455c0.617,0.338,1.321,0.507,2.113,0.507c0.688,0,1.294-0.133,1.82-0.397s1.104-0.791,1.734-1.579
			l0.242,0.141c-0.531,0.849-1.151,1.47-1.859,1.863c-0.708,0.395-1.55,0.591-2.523,0.591c-1.755,0-3.114-0.586-4.078-1.758
			c-0.719-0.872-1.078-1.898-1.078-3.079c0-0.952,0.237-1.826,0.711-2.623s1.126-1.414,1.957-1.853s1.738-0.657,2.723-0.657
			c0.766,0,1.521,0.168,2.266,0.506c0.219,0.104,0.375,0.154,0.469,0.154c0.141,0,0.263-0.044,0.367-0.133
			c0.136-0.127,0.231-0.303,0.289-0.527H292.021z"/>
		<path fill="#FFFFFF" d="M308.403,256.604v3.769h2.328c0.604,0,1.008-0.082,1.211-0.246c0.271-0.216,0.422-0.596,0.453-1.14h0.289
			v3.319h-0.289c-0.073-0.464-0.146-0.762-0.219-0.894c-0.094-0.164-0.247-0.293-0.461-0.387s-0.542-0.141-0.984-0.141h-2.328v3.144
			c0,0.422,0.021,0.679,0.062,0.77c0.042,0.092,0.114,0.164,0.219,0.218c0.104,0.055,0.302,0.081,0.594,0.081h1.797
			c0.599,0,1.034-0.037,1.305-0.112s0.531-0.223,0.781-0.443c0.323-0.29,0.653-0.729,0.992-1.314h0.312l-0.914,2.391h-8.164v-0.26
			h0.375c0.25,0,0.487-0.055,0.711-0.162c0.167-0.075,0.28-0.188,0.34-0.338c0.06-0.149,0.09-0.457,0.09-0.921v-6.194
			c0-0.604-0.067-0.978-0.203-1.118c-0.188-0.188-0.5-0.281-0.938-0.281h-0.375v-0.26h8.164l0.117,2.088h-0.305
			c-0.109-0.501-0.23-0.846-0.363-1.033s-0.329-0.331-0.59-0.429c-0.208-0.07-0.575-0.105-1.102-0.105H308.403z"/>
		<path fill="#FFFFFF" d="M337.646,265.618h-2.828l-3.586-4.458c-0.266,0.01-0.481,0.015-0.648,0.015
			c-0.067,0-0.141-0.002-0.219-0.004s-0.159-0.006-0.242-0.011v2.771c0,0.6,0.073,0.973,0.219,1.118
			c0.198,0.206,0.495,0.31,0.891,0.31h0.414v0.26h-4.539v-0.26h0.398c0.448,0,0.769-0.132,0.961-0.395
			c0.109-0.145,0.164-0.489,0.164-1.033v-6.159c0-0.601-0.073-0.973-0.219-1.118c-0.203-0.206-0.505-0.31-0.906-0.31h-0.398v-0.26
			h3.859c1.125,0,1.954,0.073,2.488,0.222c0.534,0.147,0.987,0.419,1.359,0.815c0.372,0.396,0.559,0.868,0.559,1.417
			c0,0.586-0.212,1.094-0.637,1.525s-1.082,0.736-1.973,0.914l2.188,2.735c0.5,0.628,0.93,1.045,1.289,1.251
			c0.359,0.207,0.828,0.338,1.406,0.395V265.618z M330.122,260.718c0.099,0,0.185,0.001,0.258,0.003
			c0.073,0.003,0.133,0.004,0.18,0.004c1.011,0,1.772-0.197,2.285-0.591s0.77-0.896,0.77-1.505c0-0.595-0.207-1.079-0.621-1.452
			c-0.414-0.372-0.962-0.559-1.645-0.559c-0.302,0-0.711,0.045-1.227,0.134V260.718z"/>
	</g>
</g>
<g id="Layer_3">
	<g>
		<path fill="#FFFFFF" d="M356.073,134.931c-3.22-1.552-6.486-3.396-10.333-2.105c-0.675,0.226-1.402,0.263-2.088,0.078
			c-2.34-0.633-4.663-0.951-7.045-0.16c-0.551,0.182-1.213,0.092-1.426,0.786c-0.223,0.726-0.088,1.426,0.511,1.922
			c0.583,0.482,1.215,0.913,1.855,1.315c5.036,3.155,10.791,3.621,16.314,4.389c2.004,0.062,4.155-1.006,4.333-2.281
			C358.438,137.126,357.452,135.595,356.073,134.931z"/>
		<path fill="#FFFFFF" d="M361.635,138.514c-0.738,0.06-1.311,0.517-1.384,1.32c-0.069,0.75,0.438,1.008,1.097,1.025
			c0.834,0.021,1.297-0.386,1.343-1.293C362.647,138.955,362.311,138.46,361.635,138.514z"/>
		<path fill="#FFFFFF" d="M439.905,75.969c-0.833-3.421-0.068-6.926-1.075-10.422c-1.055-3.666-0.717-7.697-1.887-11.445
			c-0.237-0.76,1.687-0.61,1.043-1.493c-0.22-0.301-1.211-0.76-0.833-0.833c0.369-0.071,2.029,0.084,2-0.5
			c-0.023-0.472-1.293-0.594-1.667-0.667c-1.034-0.203-1.874-1.327-2.124-2.559c-0.675-3.322-3.042-5.837-4.314-8.922
			c-1.817-4.4-4.624-8.337-7.395-12.246c-1.861-2.629-4.027-5.014-6.237-7.294c-2.68-2.767-5.854-5.054-8.803-7.563
			c-0.594-0.505-1.2-1.065-2.014-0.917c-1.184,0.216-1.831-0.421-2.528-1.203c-2.044-2.291-4.635-3.544-7.696-3.746
			c-0.692-0.045-1.181-0.342-1.744-0.683c-2.076-1.258-4.045-2.951-6.803-1.91c-0.578,0.218-1.251-0.128-1.567-0.604
			c-2.028-3.026-5.39-1.683-8.079-2.259c-1.254-0.268-2.729-1.038-4.198-0.541c-2.792,0.944-5.663,0.186-8.473,0.196
			c-6.041,0.024-11.809,1.394-17.597,2.754c-2.259,0.53-4.485,1.282-6.716,1.909c-4.45,1.25-8.074,3.876-11.867,6.252
			c-1.878,1.176-3.538,2.862-5.558,3.6c-1.684,0.614-3.008,1.465-4.256,2.612c-1.865,1.714-2.503,4.729-5.525,5.225
			c-0.047,0.007-0.078,0.083-0.119,0.125c-2.226,2.239-3.961,4.886-6.079,7.231c-2.394,2.65-3.552,6.2-5.227,9.345
			c-1.457,2.737-2.787,5.627-3.871,8.604c-1.146,3.147-1.688,6.398-2.348,9.631c-0.515,2.52-0.625,5.12-1.123,7.642
			c-0.379,1.917-0.454,5.638-0.826,5.76s-0.37,0.751-0.09,1.187s-0.099,2.015-0.103,3.033c-0.012,2.86,1.869,5.282,0.727,8.215
			c-0.051,0.13,0.152,0.547,0.222,0.708c0.725,1.694,0.75,3.545,1.108,5.315c0.168,0.827,0.885,1.375,0.802,2.271
			c-0.236,2.548,0.662,4.827,2.034,6.864c0.742,1.103,1.211,2.096,0.777,3.378c-0.282,0.827-0.206,1.501,0.676,1.905
			c0.529,0.243,0.634,0.79,0.919,1.225c1.647,2.535,2.09,5.774,4.566,7.823c0.079,0.065,0.171,0.242,0.139,0.299
			c-0.875,1.532,0.745,1.577,1.326,2.231c1.205,1.361,2.388,2.745,3.644,4.059c1.688,1.764,5.663,1.484,7.125-0.453
			c2.052-2.721,2.188-7.09,0.304-9.933c-1.256-1.896-2.508-3.793-3.771-5.684c-0.58-0.871-0.54-2.004,0.015-3.215
			c0.212-0.459-0.998-0.361-1.354-0.618c-1.813-1.309-3.047-3.249-4.148-5.025c-3.64-5.863-5.508-12.42-6.265-19.281
			c0.044-1.053,0.087-2.104,0.131-3.157c0.438-0.359,0.463-0.723,0.012-1.093c-0.06-1.168-0.118-2.335-0.18-3.503
			c-0.104-1.164,0.873-2.021,0.893-3.15c0.046-2.672,0.104-5.374,0.945-7.917c0.983-2.978,2.536-5.761,3.071-8.901
			c0.119-0.695,0.515-1.298,0.803-1.938c1.452-3.259,3.917-5.998,4.873-9.508c0.547-2.006,2.016-3.259,3.658-4.335
			c1.384-0.908,2.384-2.073,2.739-3.717c0.112-0.529,0.248-1.01,0.656-1.402c3.778-3.645,6.88-8.003,11.795-10.433
			c4.304-2.127,8.541-4.325,13.207-5.614c2.715-0.751,5.523-1.189,8.169-2.08c3.922-1.323,7.921-1.184,11.926-1.341
			c0.29-0.012,0.594,0.018,0.871,0.096c1.594,0.448,3.218,0.644,4.865,0.56c3.721-0.187,7.28,0.528,10.839,1.586
			c3.549,1.054,6.849,2.734,10.391,3.777c2.815,0.83,5.454,2.02,7.907,3.703c1.043,0.716,1.269,2.21,2.283,2.528
			c2.601,0.814,3.995,2.953,5.867,4.602c5.004,4.411,8.484,9.88,11.343,15.8c0.784,1.622,1.59,3.293,1.972,5.032
			c0.962,4.384,2.017,8.74,3.19,13.069c1.679,6.201,0.621,12.471,0.292,18.698c-0.096,1.801-0.241,3.769-1.059,5.5
			c-0.479,1.015-0.596,2.109-0.328,3.099c0.43,1.589,0.059,3.05-0.395,4.482c-2.299,7.283-4.955,14.52-9.63,20.583
			c-3.006,3.899-0.423,2.899-4.173,2.566c1.416,2.667,0.667,2.5-1.101,4.354c-1.134,1.189-2.153,2.702-4.079,2.817
			c-0.396,0.024-0.6,0.299-0.698,0.681c-0.755,2.99-2.572,5.285-4.729,7.395c-1.408,1.374-2.984,1.872-4.816,1.246
			c-1.824-0.625-3.76,0.518-5.549-0.439c-0.132-0.071-0.449,0.104-0.627,0.236c-1.735,1.299-4.059,0.878-5.934,2.209
			c-0.869,0.616-2.375,0.995-3.521,1.625c-0.807,0.445-0.977,1.269-0.39,1.949c0.784,0.908,0.946,1.966,1.19,3.061
			c0.49,2.194,1.078,2.5,3.179,1.894c0.394-0.114,0.804-0.195,1.211-0.223c3.888-0.266,6.64-3.312,10.272-4.203
			c0.185-0.045,0.35-0.306,0.455-0.502c0.866-1.597,3.157-2.775,4.719-2.014c1.767,0.862,2.899-0.471,4.119-1.146
			c0.806-0.445,1.603-0.91,2.466-1.285c1.851-0.803,3.986-1.331,4.785-3.657c0.218-0.633,0.897-1.261,1.856-0.952
			c0.896,0.291,1.203-0.245,1.188-1.006c-0.027-1.155,0.62-1.84,1.507-2.399c3.932-2.48,6.456-6.402,9.301-9.846
			c1.825-2.21,4.021-4.443,4.922-7.593c0.723-2.525,3.288-4.43,3.127-7.459c-0.01-0.206,0.134-0.486,0.296-0.625
			c1.337-1.145,1.678-2.797,2.107-4.347c0.54-1.94,1.897-3.537,2.322-5.455c0.63-2.831,1.376-5.692,1.262-8.607
			C438.778,77.421,440.123,76.86,439.905,75.969z"/>
	</g>
</g>
</svg>
