<?xml version="1.0" encoding="utf-8"?>
<!-- Generator: Adobe Illustrator 16.0.4, SVG Export Plug-In . SVG Version: 6.00 Build 0)  -->
<!DOCTYPE svg PUBLIC "-//W3C//DTD SVG 1.1//EN" "http://www.w3.org/Graphics/SVG/1.1/DTD/svg11.dtd">
<svg version="1.1" xmlns="http://www.w3.org/2000/svg" xmlns:xlink="http://www.w3.org/1999/xlink" x="0px" y="0px"
	 width="147.995px" height="79.479px" viewBox="0 0 147.995 79.479" enable-background="new 0 0 147.995 79.479"
	 xml:space="preserve">
<g id="Layer_1">
</g>
<g id="Layer_2">
	<g>
		<g>
			<path fill="#FFFFFF" d="M66.639,36.376h-6.727l6.727,6.726v6.722l-6.727,6.728H39.738v-13.45h6.727l-6.727-6.726h-6.727v20.176
				h-13.45V36.376h-6.726V22.924h26.902v6.727l6.727-6.727h20.174V36.376z M39.738,0C17.789,0,0,17.789,0,39.738
				c0,21.948,17.789,39.741,39.738,39.741c21.947,0,39.738-17.793,39.738-39.741C79.477,17.789,61.686,0,39.738,0"/>
		</g>
		<g>
			<path fill="#FFFFFF" d="M86.9,30.735V16.838h-1.756v-2.085h6.046v2.085h-1.775v13.897H86.9z"/>
			<path fill="#FFFFFF" d="M90.972,30.735l1.845-15.982h3.572l1.846,15.982H95.61l-0.12-2.005h-1.775l-0.12,2.005H90.972z
				 M93.874,26.854h1.457l-0.35-4.818c-0.033-0.373-0.113-1.537-0.239-3.492c-0.06-0.924-0.109-1.66-0.149-2.205
				c-0.1,1.59-0.182,2.86-0.244,3.811c-0.063,0.951-0.105,1.58-0.125,1.886L93.874,26.854z"/>
			<path fill="#FFFFFF" d="M99.092,30.735V14.753h2.055l2.125,10.545c-0.06-1.137-0.104-2.087-0.135-2.848
				c-0.029-0.762-0.044-1.329-0.044-1.701v-5.996h2.244v15.982h-2.145l-2.046-10.396c0.066,0.825,0.115,1.585,0.146,2.28
				c0.029,0.695,0.045,1.335,0.045,1.92v6.195H99.092z"/>
			<path fill="#FFFFFF" d="M109.492,22.215h3.332v5.008c0,1.237-0.268,2.162-0.803,2.773s-1.339,0.918-2.409,0.918
				c-1.071,0-1.874-0.311-2.409-0.933c-0.536-0.622-0.804-1.561-0.804-2.818v-8.849c0-1.257,0.268-2.198,0.804-2.823
				c0.535-0.625,1.338-0.938,2.409-0.938c1.037,0,1.832,0.301,2.384,0.903c0.553,0.602,0.828,1.472,0.828,2.609v1.536h-2.494v-1.756
				c0-0.559-0.053-0.916-0.159-1.072s-0.293-0.234-0.559-0.234c-0.267,0-0.449,0.07-0.549,0.209s-0.149,0.449-0.149,0.928v10.056
				c0,0.479,0.05,0.79,0.149,0.933c0.1,0.144,0.282,0.215,0.549,0.215c0.266,0,0.452-0.08,0.559-0.24s0.159-0.515,0.159-1.067
				v-0.289V24.22h-0.838V22.215z"/>
			<path fill="#FFFFFF" d="M113.907,30.735V14.753h5.637v2.025h-3.133v4.05h3.133v2.045h-3.133v5.776h3.133v2.085H113.907z"/>
			<path fill="#FFFFFF" d="M120.467,30.735V14.753h2.055l2.125,10.545c-0.06-1.137-0.104-2.087-0.135-2.848
				c-0.029-0.762-0.045-1.329-0.045-1.701v-5.996h2.245v15.982h-2.146l-2.045-10.396c0.066,0.825,0.115,1.585,0.145,2.28
				c0.03,0.695,0.045,1.335,0.045,1.92v6.195H120.467z"/>
			<path fill="#FFFFFF" d="M129.246,30.735V16.838h-1.756v-2.085h6.045v2.085h-1.775v13.897H129.246z"/>
		</g>
		<g>
			<path fill="#FFFFFF" d="M92.051,36.039v1.926h-2.494v-2.185c0-0.485-0.057-0.812-0.17-0.978c-0.113-0.167-0.316-0.25-0.608-0.25
				c-0.279,0-0.476,0.082-0.589,0.244c-0.113,0.163-0.17,0.491-0.17,0.983v1.078c0,0.618,0.553,1.553,1.656,2.803
				c0.473,0.532,0.835,0.955,1.088,1.267c0.459,0.579,0.798,1.13,1.018,1.656s0.329,1.054,0.329,1.586v1.187
				c0,1.144-0.294,2.025-0.883,2.644c-0.589,0.618-1.425,0.928-2.509,0.928c-1.185,0-2.029-0.278-2.534-0.833
				c-0.506-0.555-0.759-1.495-0.759-2.818v-1.736h2.494v2.085c0,0.525,0.059,0.871,0.175,1.038c0.116,0.166,0.324,0.25,0.624,0.25
				c0.299,0,0.507-0.085,0.623-0.254c0.116-0.17,0.175-0.514,0.175-1.033v-1.107c0-0.193-0.025-0.394-0.075-0.604
				s-0.121-0.424-0.214-0.644c-0.12-0.272-0.496-0.765-1.128-1.477c-0.445-0.505-0.791-0.911-1.037-1.217
				c-0.599-0.758-1.005-1.394-1.218-1.906s-0.318-1.058-0.318-1.636v-1.237c0-1.018,0.294-1.807,0.883-2.37
				c0.588-0.562,1.411-0.843,2.469-0.843c1.064,0,1.859,0.286,2.385,0.858C91.788,34.017,92.051,34.881,92.051,36.039z"/>
			<path fill="#FFFFFF" d="M93.317,48.749V32.767h2.055l2.125,10.545c-0.06-1.137-0.104-2.087-0.135-2.848
				c-0.029-0.762-0.044-1.329-0.044-1.701v-5.996h2.244v15.982h-2.145l-2.046-10.396c0.066,0.825,0.115,1.585,0.146,2.28
				c0.029,0.695,0.045,1.335,0.045,1.92v6.195H93.317z"/>
			<path fill="#FFFFFF" d="M107.274,45.177c0,1.25-0.27,2.188-0.809,2.813c-0.538,0.625-1.347,0.938-2.424,0.938
				c-1.071,0-1.874-0.311-2.409-0.933c-0.536-0.622-0.804-1.561-0.804-2.818v-8.849c0-1.257,0.268-2.198,0.804-2.823
				c0.535-0.625,1.338-0.938,2.409-0.938c1.077,0,1.886,0.314,2.424,0.943c0.539,0.628,0.809,1.568,0.809,2.818V45.177z
				 M103.344,35.689v10.056c0,0.479,0.05,0.79,0.149,0.933c0.1,0.144,0.282,0.215,0.549,0.215c0.266,0,0.452-0.078,0.559-0.234
				s0.159-0.46,0.159-0.913V35.689c0-0.452-0.053-0.755-0.159-0.908s-0.293-0.229-0.559-0.229c-0.267,0-0.449,0.07-0.549,0.209
				S103.344,35.21,103.344,35.689z"/>
			<path fill="#FFFFFF" d="M110.107,48.749l-2.125-15.982h2.534l0.798,11.672l1.188-11.672h1.815l1.188,11.672l0.738-11.672h2.484
				l-2.146,15.982h-1.975l-1.188-11.932l-1.387,11.932H110.107z"/>
			<path fill="#FFFFFF" d="M119.515,48.749V32.767h3.552c0.971,0,1.659,0.194,2.065,0.583c0.405,0.389,0.608,1.039,0.608,1.95v2.025
				c0,0.718-0.168,1.259-0.504,1.621c-0.336,0.363-0.866,0.577-1.591,0.644c0.784,0.066,1.358,0.279,1.721,0.638
				c0.362,0.359,0.544,0.905,0.544,1.636v4.19c0,0.885-0.238,1.555-0.714,2.01c-0.476,0.456-1.179,0.684-2.11,0.684H119.515z
				 M121.979,38.632c0.04,0,0.088,0.003,0.145,0.01c0.056,0.007,0.098,0.01,0.124,0.01c0.399,0,0.684-0.125,0.854-0.374
				c0.169-0.25,0.254-0.67,0.254-1.262v-0.898c0-0.545-0.083-0.919-0.249-1.123c-0.166-0.203-0.466-0.304-0.898-0.304h-0.229V38.632
				z M121.979,46.803c0.04,0,0.088,0.003,0.145,0.01c0.056,0.007,0.098,0.01,0.124,0.01c0.399,0,0.684-0.122,0.854-0.364
				c0.169-0.243,0.254-0.657,0.254-1.242v-3.192c0-0.545-0.083-0.919-0.249-1.122c-0.166-0.203-0.466-0.305-0.898-0.305h-0.229
				V46.803z"/>
			<path fill="#FFFFFF" d="M126.678,48.749l1.846-15.982h3.571l1.846,15.982h-2.623l-0.12-2.005h-1.775l-0.12,2.005H126.678z
				 M129.581,44.868h1.457l-0.35-4.818c-0.033-0.373-0.113-1.537-0.239-3.492c-0.06-0.924-0.109-1.66-0.149-2.205
				c-0.101,1.59-0.182,2.86-0.245,3.811c-0.062,0.951-0.104,1.58-0.124,1.886L129.581,44.868z"/>
			<path fill="#FFFFFF" d="M134.938,48.749V32.767h2.515v13.877h2.853v2.105H134.938z"/>
			<path fill="#FFFFFF" d="M141.084,48.749V32.767h2.515v13.877h2.853v2.105H141.084z"/>
		</g>
		<g>
			<path fill="#FFFFFF" d="M85.225,66.427l1.846-15.982h3.571l1.846,15.982h-2.624l-0.119-2.005h-1.776l-0.119,2.005H85.225z
				 M88.128,62.546h1.456l-0.349-4.818c-0.033-0.373-0.113-1.537-0.239-3.492c-0.061-0.924-0.11-1.66-0.15-2.205
				c-0.1,1.59-0.181,2.86-0.244,3.811s-0.104,1.58-0.125,1.886L88.128,62.546z"/>
			<path fill="#FFFFFF" d="M93.694,50.445h2.515v12.979c0,0.466,0.053,0.773,0.159,0.923s0.293,0.225,0.559,0.225
				c0.26,0,0.44-0.075,0.544-0.225s0.154-0.457,0.154-0.923V50.445h2.515v12.411c0,1.257-0.268,2.196-0.804,2.818
				c-0.535,0.622-1.338,0.933-2.409,0.933c-1.077,0-1.886-0.312-2.424-0.938c-0.539-0.625-0.809-1.563-0.809-2.813V50.445z"/>
			<path fill="#FFFFFF" d="M107.861,53.717v1.926h-2.494v-2.185c0-0.485-0.057-0.812-0.17-0.978c-0.113-0.167-0.316-0.25-0.608-0.25
				c-0.279,0-0.476,0.082-0.589,0.244c-0.113,0.163-0.17,0.491-0.17,0.983v1.078c0,0.618,0.553,1.553,1.656,2.803
				c0.473,0.532,0.835,0.955,1.088,1.267c0.459,0.579,0.798,1.13,1.018,1.656s0.329,1.054,0.329,1.586v1.187
				c0,1.144-0.294,2.025-0.883,2.644c-0.589,0.618-1.425,0.928-2.509,0.928c-1.185,0-2.029-0.278-2.534-0.833
				c-0.506-0.555-0.759-1.495-0.759-2.818v-1.736h2.494v2.085c0,0.525,0.059,0.871,0.175,1.038c0.116,0.166,0.324,0.25,0.624,0.25
				c0.299,0,0.507-0.085,0.623-0.254c0.116-0.17,0.175-0.514,0.175-1.033v-1.107c0-0.193-0.025-0.394-0.075-0.604
				s-0.121-0.424-0.214-0.644c-0.12-0.272-0.496-0.765-1.128-1.477c-0.445-0.505-0.791-0.911-1.037-1.217
				c-0.599-0.758-1.005-1.394-1.218-1.906s-0.318-1.058-0.318-1.636v-1.237c0-1.018,0.294-1.807,0.883-2.37
				c0.588-0.562,1.411-0.843,2.469-0.843c1.064,0,1.859,0.286,2.385,0.858C107.599,51.695,107.861,52.56,107.861,53.717z"/>
			<path fill="#FFFFFF" d="M110.345,66.427V52.53h-1.756v-2.085h6.046v2.085h-1.775v13.897H110.345z"/>
			<path fill="#FFFFFF" d="M115.423,66.427V50.445h3.611c1.038,0,1.758,0.211,2.16,0.633s0.604,1.186,0.604,2.29v1.965
				c0,0.911-0.127,1.591-0.379,2.04c-0.253,0.449-0.652,0.71-1.197,0.783l1.975,8.271h-2.523l-1.636-8.46h-0.15v8.46H115.423z
				 M119.363,53.797c0-0.532-0.088-0.899-0.264-1.103c-0.177-0.203-0.498-0.304-0.963-0.304h-0.25v4.479h0.27
				c0.452,0,0.767-0.117,0.943-0.35c0.176-0.232,0.264-0.655,0.264-1.267V53.797z"/>
			<path fill="#FFFFFF" d="M122.904,66.427l1.846-15.982h3.571l1.846,15.982h-2.623l-0.12-2.005h-1.775l-0.12,2.005H122.904z
				 M125.808,62.546h1.457l-0.35-4.818c-0.033-0.373-0.113-1.537-0.239-3.492c-0.06-0.924-0.109-1.66-0.149-2.205
				c-0.101,1.59-0.182,2.86-0.245,3.811c-0.062,0.951-0.104,1.58-0.124,1.886L125.808,62.546z"/>
			<path fill="#FFFFFF" d="M131.165,66.427V50.445h2.515v13.877h2.853v2.105H131.165z"/>
			<path fill="#FFFFFF" d="M137.271,66.427V50.445h2.515v15.982H137.271z"/>
			<path fill="#FFFFFF" d="M140.732,66.427l1.846-15.982h3.571l1.846,15.982h-2.623l-0.12-2.005h-1.775l-0.12,2.005H140.732z
				 M143.636,62.546h1.457l-0.35-4.818c-0.033-0.373-0.113-1.537-0.239-3.492c-0.06-0.924-0.109-1.66-0.149-2.205
				c-0.101,1.59-0.182,2.86-0.245,3.811c-0.062,0.951-0.104,1.58-0.124,1.886L143.636,62.546z"/>
		</g>
	</g>
</g>
</svg>
