<?xml version="1.0" encoding="utf-8"?>
<!-- Generator: Adobe Illustrator 16.0.4, SVG Export Plug-In . SVG Version: 6.00 Build 0)  -->
<!DOCTYPE svg PUBLIC "-//W3C//DTD SVG 1.1//EN" "http://www.w3.org/Graphics/SVG/1.1/DTD/svg11.dtd">
<svg version="1.1" id="Layer_1" xmlns="http://www.w3.org/2000/svg" xmlns:xlink="http://www.w3.org/1999/xlink" x="0px" y="0px"
	 width="93.702px" height="24.5px" viewBox="0 0 93.702 24.5" enable-background="new 0 0 93.702 24.5" xml:space="preserve">
<g>
	<path fill="#000000" d="M31.987,15.911l3.382-8.228l3.382,8.228l2.507-7.771h0.576l-3.046,9.343l-3.454-8.359l-3.442,8.359
		l-3.022-9.343h0.576L31.987,15.911z"/>
	<path fill="#000000" d="M45.933,17.182h-0.576V8.139h0.576V17.182z"/>
	<path fill="#000000" d="M54.462,9.626c-0.408-0.648-0.983-1.067-1.835-1.067c-0.972,0-1.703,0.779-1.703,1.727
		c0,0.947,0.899,1.343,1.631,1.691l1.727,0.899c0.684,0.432,1.032,0.983,1.032,1.799c0,1.5-1.367,2.627-2.831,2.627
		c-1.259,0-2.243-0.78-2.663-1.943l0.504-0.228c0.384,0.959,1.091,1.631,2.183,1.631c1.188,0,2.231-0.936,2.231-2.135
		c0-1.02-1.043-1.451-1.823-1.835l-1.631-0.863c-0.6-0.372-0.936-0.9-0.936-1.619c0-1.343,0.959-2.291,2.315-2.291
		c0.911,0,1.775,0.492,2.207,1.271L54.462,9.626z"/>
	<path fill="#000000" d="M64.673,11.977V8.139h0.576v9.043h-0.576v-4.666H59.18v4.666h-0.576V8.139h0.576v3.838H64.673z"/>
	<path fill="#000000" d="M69.572,16.643h2.303v0.54h-2.878V8.139h0.576V16.643z"/>
	<path fill="#000000" d="M76.376,17.182H75.8V8.139h0.576V17.182z"/>
	<path fill="#000000" d="M84.606,9.626c-0.408-0.648-0.983-1.067-1.835-1.067c-0.972,0-1.703,0.779-1.703,1.727
		c0,0.947,0.899,1.343,1.631,1.691l1.727,0.899c0.684,0.432,1.032,0.983,1.032,1.799c0,1.5-1.367,2.627-2.831,2.627
		c-1.259,0-2.243-0.78-2.663-1.943l0.504-0.228c0.384,0.959,1.091,1.631,2.183,1.631c1.188,0,2.231-0.936,2.231-2.135
		c0-1.02-1.043-1.451-1.823-1.835l-1.631-0.863c-0.6-0.372-0.936-0.9-0.936-1.619c0-1.343,0.959-2.291,2.315-2.291
		c0.911,0,1.775,0.492,2.207,1.271L84.606,9.626z"/>
	<path fill="#000000" d="M91.363,17.182h-0.576V8.679h-2.339v-0.54h5.253v0.54h-2.339V17.182z"/>
</g>
<path fill="#000000" d="M12.25,0C5.484,0,0,5.484,0,12.25S5.484,24.5,12.25,24.5S24.5,19.016,24.5,12.25S19.016,0,12.25,0z
	 M13.826,18.032c-0.288,0.06-0.552,0.084-0.78,0.084c-0.983,0-1.487-0.528-1.487-1.919c0-0.348,0.036-0.756,0.096-1.211
	c-0.792,0.792-1.967,2.219-2.674,2.974c-0.084,0.048-0.276,0.108-0.624,0.108c-0.815,0-1.571-0.792-1.571-2.039
	c0-2.111,1.847-6.129,1.847-7.268c0-0.192-0.024-0.384-0.084-0.563c0.096-0.024,0.204-0.024,0.3-0.024
	c0.852,0,1.775,0.708,1.775,1.607c0,1.199-1.032,2.878-1.283,4.293c1.427-1.451,3.406-3.562,3.406-5.709
	c0.168-0.048,0.336-0.072,0.492-0.072c0.875,0,1.476,0.708,1.476,1.583c0,1.151-0.936,3.094-1.067,4.534
	c2.135-2.363,3.25-4.461,3.25-5.961c0-1.199-0.708-2.015-2.147-2.303c0.588-0.516,1.248-0.755,1.883-0.755
	c1.823,0,2.411,1.08,2.411,2.423C19.043,12.083,15.301,14.734,13.826,18.032z"/>
</svg>
