<?xml version="1.0" encoding="utf-8"?>
<!-- Generator: Adobe Illustrator 18.1.0, SVG Export Plug-In . SVG Version: 6.00 Build 0)  -->
<!DOCTYPE svg PUBLIC "-//W3C//DTD SVG 1.1//EN" "http://www.w3.org/Graphics/SVG/1.1/DTD/svg11.dtd">
<svg version="1.1" id="Layer_1" xmlns="http://www.w3.org/2000/svg" xmlns:xlink="http://www.w3.org/1999/xlink" x="0px" y="0px"
	 viewBox="406.7 613.6 48 39.7" enable-background="new 406.7 613.6 48 39.7" xml:space="preserve">
<g id="icomoon-ignore">
</g>
<path fill="#FFFFFF" d="M431.8,653.3c-2,0-3.9-0.8-5.3-2.2c-1.4-1.4-2.2-3.3-2.2-5.3c0-1.9,0.7-2.5,1.9-5h-12
	c-4.1,0-7.5-3.3-7.5-7.5c0-4.1,3.3-7.5,7.5-7.5h12c-1.2-2.5-1.9-3.1-1.9-5c0-2,0.8-3.9,2.2-5.3c2.8-2.8,7.7-2.8,10.5,0l17.7,17.7
	L437,651.1C435.6,652.5,433.7,653.3,431.8,653.3L431.8,653.3z M414.2,630.9c-1.4,0-2.5,1.1-2.5,2.5s1.1,2.5,2.5,2.5h24l-8.2,8.2
	c-0.5,0.5-0.7,1.1-0.7,1.8c0,0.7,0.3,1.3,0.7,1.8c0.9,0.9,2.6,0.9,3.5,0l14.2-14.2l-14.2-14.2c-0.9-0.9-2.6-0.9-3.5,0
	c-0.5,0.5-0.7,1.1-0.7,1.8c0,0.7,0.3,1.3,0.7,1.8l8.2,8.2H414.2L414.2,630.9z"/>
</svg>
