<?xml version="1.0" encoding="utf-8"?>
<!-- Generator: Adobe Illustrator 18.1.0, SVG Export Plug-In . SVG Version: 6.00 Build 0)  -->
<!DOCTYPE svg PUBLIC "-//W3C//DTD SVG 1.1//EN" "http://www.w3.org/Graphics/SVG/1.1/DTD/svg11.dtd">
<svg version="1.1" id="Layer_1" xmlns="http://www.w3.org/2000/svg" xmlns:xlink="http://www.w3.org/1999/xlink" x="0px" y="0px"
	 viewBox="399 613.6 48 39.7" enable-background="new 399 613.6 48 39.7" xml:space="preserve">
<g id="icomoon-ignore">
</g>
<path fill="#FFFFFF" d="M421.9,653.3c-2,0-3.9-0.8-5.3-2.2L399,633.4l17.7-17.7c2.8-2.8,7.7-2.8,10.5,0c1.4,1.4,2.2,3.3,2.2,5.3
	c0,1.9-0.7,3.6-1.9,5h12c4.1,0,7.5,3.3,7.5,7.5s-3.3,7.5-7.5,7.5h-12c1.2,1.4,1.9,3.1,1.9,5c0,2-0.8,3.9-2.2,5.3
	C425.8,652.5,423.9,653.3,421.9,653.3L421.9,653.3z M406,633.4l14.2,14.2c0.9,0.9,2.6,0.9,3.5,0c0.5-0.5,0.7-1.1,0.7-1.8
	s-0.3-1.3-0.7-1.8l-8.2-8.2h24c1.4,0,2.5-1.1,2.5-2.5c0-1.4-1.1-2.5-2.5-2.5h-24l8.2-8.2c0.5-0.5,0.7-1.1,0.7-1.8
	c0-0.7-0.3-1.3-0.7-1.8c-0.9-0.9-2.6-0.9-3.5,0L406,633.4L406,633.4z"/>
</svg>
