<?xml version="1.0" encoding="utf-8"?>
<!-- Generator: Adobe Illustrator 16.0.4, SVG Export Plug-In . SVG Version: 6.00 Build 0)  -->
<!DOCTYPE svg PUBLIC "-//W3C//DTD SVG 1.1//EN" "http://www.w3.org/Graphics/SVG/1.1/DTD/svg11.dtd">
<svg version="1.1" id="Layer_1" xmlns="http://www.w3.org/2000/svg" xmlns:xlink="http://www.w3.org/1999/xlink" x="0px" y="0px"
	 width="208.157px" height="38.007px" viewBox="0 0 208.157 38.007" enable-background="new 0 0 208.157 38.007"
	 xml:space="preserve">
<path fill="#FFFFFF" d="M0,0.083h6.236c6.891,0,12.674,2.515,12.674,10.261c0,3.068-1.156,5.683-3.722,7.393
	c4.526,1.107,7.192,5.181,7.192,9.708c0,7.544-6.085,10.562-13.58,10.562H0V0.083z M4.225,16.782h1.609
	c4.779,0,8.853-0.553,8.853-6.438c0-5.733-3.621-6.337-8.802-6.337h-1.66V16.782z M4.225,34.084H8.45
	c4.728,0,9.707-1.157,9.707-6.941c0-5.885-5.633-6.74-10.261-6.74H4.225V34.084z"/>
<path fill="#FFFFFF" d="M97.362,34.039v3.918H70.237L90.881,4.001H72.849V0.083h25.063L77.219,34.039H97.362z"/>
<path fill="#FFFFFF" d="M190.546,37.931h-4.202V0.208h5.453c7.153,0,13.809,1.901,13.809,10.406c0,5.804-3.652,9.906-9.455,10.407
	l12.006,16.91h-5.153l-11.407-16.56h-1.05V37.931z M190.546,17.668h1.301c4.753,0,9.557-0.9,9.557-6.753
	c0-6.203-4.554-6.804-9.606-6.804h-1.251V17.668z"/>
<polygon fill="#FFFFFF" points="162.623,0 145.917,37.923 150.333,37.923 154.702,27.923 154.704,27.939 156.288,24.023 
	156.334,23.923 159.022,17.788 159.032,17.844 159.022,17.906 162.526,9.564 168.575,23.923 160.225,23.923 158.658,27.923 
	170.159,27.923 174.431,37.923 178.896,37.923 "/>
<polygon fill="#FFFFFF" points="122.123,0 105.417,37.923 109.833,37.923 114.202,27.923 114.204,27.939 115.788,24.023 
	115.834,23.923 118.522,17.788 118.532,17.844 118.522,17.906 122.026,9.564 128.075,23.923 119.725,23.923 118.158,27.923 
	129.659,27.923 133.931,37.923 138.396,37.923 "/>
<polygon fill="#FFFFFF" points="46.456,0 29.75,37.923 34.167,37.923 38.535,27.923 38.537,27.939 40.121,24.023 40.168,23.923 
	42.855,17.788 42.865,17.844 42.855,17.906 46.359,9.564 52.408,23.923 44.059,23.923 42.491,27.923 53.992,27.923 58.265,37.923 
	62.729,37.923 "/>
</svg>
