<?xml version="1.0" encoding="utf-8"?>
<!-- Generator: Adobe Illustrator 16.0.4, SVG Export Plug-In . SVG Version: 6.00 Build 0)  -->
<!DOCTYPE svg PUBLIC "-//W3C//DTD SVG 1.1//EN" "http://www.w3.org/Graphics/SVG/1.1/DTD/svg11.dtd">
<svg version="1.1" id="Layer_1" xmlns="http://www.w3.org/2000/svg" xmlns:xlink="http://www.w3.org/1999/xlink" x="0px" y="0px"
	 width="400px" height="73.036px" viewBox="-95.921 -17.514 400 73.036" enable-background="new -95.921 -17.514 400 73.036"
	 xml:space="preserve">
<path d="M-95.921-17.355h11.983c13.242,0,24.355,4.833,24.355,19.718c0,5.896-2.222,10.92-7.152,14.206
	c8.697,2.128,13.82,9.956,13.82,18.655c0,14.497-11.693,20.298-26.096,20.298h-16.91V-17.355z M-87.803,14.734h3.092
	c9.183,0,17.012-1.062,17.012-12.371c0-11.017-6.958-12.178-16.915-12.178h-3.189V14.734z M-87.803,47.982h8.119
	c9.085,0,18.653-2.223,18.653-13.337c0-11.311-10.825-12.953-19.718-12.953h-7.054V47.982z"/>
<path d="M91.172,47.895v7.529H39.047l39.67-65.25h-34.65v-7.529h48.162l-39.764,65.25H91.172z"/>
<path d="M270.236,55.375h-8.073v-72.49h10.479c13.744,0,26.534,3.653,26.534,19.996c0,11.154-7.018,19.036-18.169,19.999
	l23.071,32.495h-9.901l-21.92-31.823h-2.018v31.823H270.236z M270.236,16.437h2.502c9.133,0,18.364-1.729,18.364-12.977
	c0-11.92-8.751-13.075-18.46-13.075h-2.402v26.052H270.236z"/>
<polygon points="216.581,-17.514 184.476,55.36 192.961,55.36 201.358,36.144 201.361,36.174 204.405,28.649 204.496,28.458 
	209.66,16.668 209.678,16.776 209.66,16.894 216.393,0.864 228.016,28.458 211.971,28.458 208.961,36.144 231.06,36.144 
	239.27,55.36 247.85,55.36 "/>
<polygon points="138.754,-17.514 106.65,55.36 115.135,55.36 123.532,36.144 123.536,36.174 126.58,28.649 126.669,28.458 
	131.833,16.668 131.852,16.776 131.833,16.894 138.567,0.864 150.19,28.458 134.146,28.458 131.135,36.144 153.234,36.144 
	161.444,55.36 170.024,55.36 "/>
<polygon points="-6.65,-17.514 -38.753,55.36 -30.265,55.36 -21.872,36.144 -21.868,36.174 -18.824,28.649 -18.734,28.458 
	-13.57,16.668 -13.551,16.776 -13.57,16.894 -6.837,0.864 4.788,28.458 -11.256,28.458 -14.27,36.144 7.832,36.144 16.042,55.36 
	24.62,55.36 "/>
</svg>
