<svg xmlns="http://www.w3.org/2000/svg" width="28" height="28" viewBox="0 0 28 28"><path d="M16 23.438q-.656-3.766-2.188-7.781h-.031l-.031.016q-.25.094-.672.258t-1.578.766-2.141 1.281-2.047 1.789-1.609 2.312l-.234-.172q2.875 2.344 6.531 2.344 2.063 0 4-.812zm-2.891-9.485q-.328-.766-.828-1.734-4.859 1.453-10.516 1.453l-.016.328q0 1.937.688 3.695t1.937 3.148q.781-1.391 1.93-2.602t2.227-1.945 2.039-1.266 1.555-.75l.578-.203.203-.055.203-.07zm-1.671-3.312q-1.875-3.328-3.813-5.906-2.156 1.016-3.656 2.906t-2 4.25q4.719 0 9.469-1.25zm10.687 4.984q-3.281-.938-6.391-.453 1.359 3.734 2 7.328 1.734-1.172 2.891-2.961t1.5-3.914zm-12.578-11.578l-.031.016.031-.016zm9.219 2.265q-2.891-2.562-6.766-2.562-1.188 0-2.422.297 2.047 2.656 3.844 5.969 1.078-.406 2.031-.945t1.508-.961 1.023-.891.586-.633zm3.484 7.579q-.047-3.625-2.328-6.406l-.016.016q-.141.187-.297.383t-.68.695-1.109.945-1.563 1.016-2.055 1.008q.391.828.688 1.484l.102.273.117.258q.562-.078 1.164-.109t1.148-.031 1.078.023 1 .063.883.086.75.102.57.094.391.07zm1.75.109q0 3.266-1.609 6.023t-4.367 4.367-6.023 1.609-6.023-1.609-4.367-4.367-1.609-6.023 1.609-6.023 4.367-4.367 6.023-1.609 6.023 1.609 4.367 4.367 1.609 6.023z"/></svg>