<svg xmlns="http://www.w3.org/2000/svg" width="30" height="28" viewBox="0 0 30 28"><path d="M6 25v-2q0-.406-.297-.703t-.703-.297h-2q-.406 0-.703.297t-.297.703v2q0 .406.297.703t.703.297h2q.406 0 .703-.297t.297-.703zm0-6v-2q0-.406-.297-.703t-.703-.297h-2q-.406 0-.703.297t-.297.703v2q0 .406.297.703t.703.297h2q.406 0 .703-.297t.297-.703zm0-6v-2q0-.406-.297-.703t-.703-.297h-2q-.406 0-.703.297t-.297.703v2q0 .406.297.703t.703.297h2q.406 0 .703-.297t.297-.703zm16 12v-8q0-.406-.297-.703t-.703-.297h-12q-.406 0-.703.297t-.297.703v8q0 .406.297.703t.703.297h12q.406 0 .703-.297t.297-.703zm-16-18v-2q0-.406-.297-.703t-.703-.297h-2q-.406 0-.703.297t-.297.703v2q0 .406.297.703t.703.297h2q.406 0 .703-.297t.297-.703zm22 18v-2q0-.406-.297-.703t-.703-.297h-2q-.406 0-.703.297t-.297.703v2q0 .406.297.703t.703.297h2q.406 0 .703-.297t.297-.703zm-6-12v-8q0-.406-.297-.703t-.703-.297h-12q-.406 0-.703.297t-.297.703v8q0 .406.297.703t.703.297h12q.406 0 .703-.297t.297-.703zm6 6v-2q0-.406-.297-.703t-.703-.297h-2q-.406 0-.703.297t-.297.703v2q0 .406.297.703t.703.297h2q.406 0 .703-.297t.297-.703zm0-6v-2q0-.406-.297-.703t-.703-.297h-2q-.406 0-.703.297t-.297.703v2q0 .406.297.703t.703.297h2q.406 0 .703-.297t.297-.703zm0-6v-2q0-.406-.297-.703t-.703-.297h-2q-.406 0-.703.297t-.297.703v2q0 .406.297.703t.703.297h2q.406 0 .703-.297t.297-.703zm2-2.5v21q0 1.031-.734 1.766t-1.766.734h-25q-1.031 0-1.766-.734t-.734-1.766v-21q0-1.031.734-1.766t1.766-.734h25q1.031 0 1.766.734t.734 1.766z"/></svg>