<?xml version="1.0" encoding="utf-8"?>
<!-- Generator: Adobe Illustrator 16.0.4, SVG Export Plug-In . SVG Version: 6.00 Build 0)  -->
<!DOCTYPE svg PUBLIC "-//W3C//DTD SVG 1.1//EN" "http://www.w3.org/Graphics/SVG/1.1/DTD/svg11.dtd">
<svg version="1.1" id="Layer_1" xmlns="http://www.w3.org/2000/svg" xmlns:xlink="http://www.w3.org/1999/xlink" x="0px" y="0px"
	 width="168.107px" height="105.241px" viewBox="0 0 168.107 105.241" enable-background="new 0 0 168.107 105.241"
	 xml:space="preserve">
<g>
	<linearGradient id="SVGID_1_" gradientUnits="userSpaceOnUse" x1="84.0537" y1="-5.8081" x2="84.0537" y2="107.8934">
		<stop  offset="0.4069" style="stop-color:#0B78A4"/>
		<stop  offset="0.9879" style="stop-color:#023B58"/>
	</linearGradient>
	<path fill="url(#SVGID_1_)" d="M168.107,47.497c0,31.893-78.469,57.745-110.361,57.745C25.854,105.241,0,79.389,0,47.497
		S15.604,0,47.496,0S168.107,15.604,168.107,47.497z"/>
	<linearGradient id="SVGID_2_" gradientUnits="userSpaceOnUse" x1="92.8223" y1="-11.873" x2="92.8223" y2="128.3823">
		<stop  offset="0.4069" style="stop-color:#0B78A4"/>
		<stop  offset="0.9879" style="stop-color:#5FB5E5"/>
	</linearGradient>
	<path opacity="0.7" fill="url(#SVGID_2_)" d="M162.47,46.324c0,28.367-59.565,51.361-87.933,51.361
		c-28.368,0-51.363-22.995-51.363-51.361c0-28.368,13.88-42.247,42.246-42.247C93.788,4.077,162.47,17.956,162.47,46.324z"/>
	<linearGradient id="SVGID_3_" gradientUnits="userSpaceOnUse" x1="32.3994" y1="25.0815" x2="15.7641" y2="5.2699">
		<stop  offset="0.4069" style="stop-color:#0B78A4"/>
		<stop  offset="0.9879" style="stop-color:#5FB5E5"/>
	</linearGradient>
	<path opacity="0.4" fill="url(#SVGID_3_)" d="M61.588,3.418C-4.527-4.354,4.271,48.009,4.271,48.009
		C17.597,3.417,61.588,3.418,61.588,3.418z"/>
	<linearGradient id="SVGID_4_" gradientUnits="userSpaceOnUse" x1="48.0068" y1="52.6206" x2="145.728" y2="52.6206">
		<stop  offset="0.0385" style="stop-color:#0B78A4"/>
		<stop  offset="0.9879" style="stop-color:#023B58"/>
	</linearGradient>
	<path opacity="0.5" fill="url(#SVGID_4_)" d="M149.067,48.144c0,27.86-38.402,50.441-66.26,50.441
		c-27.858,0-50.442-22.581-50.442-50.441c0-27.856,13.63-41.488,41.488-41.488C101.713,6.656,149.067,20.288,149.067,48.144z"/>
	<path opacity="0.1" fill="#6BCCE1" d="M108.47,47.159c0,23.163-31.927,41.937-55.088,41.937c-23.162,0-41.938-18.773-41.938-41.937
		c0-23.16,11.333-34.492,34.494-34.492C69.102,12.667,108.47,24,108.47,47.159z"/>
	<path fill="#F4F5F5" d="M49.508,50.056c0,2.158-0.336,4.147-1.008,5.968c-0.672,1.822-1.645,3.387-2.918,4.696
		c-1.273,1.309-2.794,2.312-4.562,3.011c-1.769,0.699-3.758,1.048-5.968,1.048c-2.193,0-4.165-0.354-5.916-1.062
		c-1.751-0.707-3.267-1.72-4.549-3.037s-2.255-2.874-2.918-4.668c-0.663-1.795-0.995-3.78-0.995-5.956
		c0-2.192,0.335-4.2,1.008-6.022c0.672-1.821,1.636-3.377,2.892-4.668c1.255-1.291,2.776-2.285,4.562-2.984
		c1.786-0.699,3.758-1.048,5.916-1.048c2.192,0,4.182,0.354,5.968,1.061c1.786,0.708,3.316,1.716,4.589,3.024
		c1.273,1.309,2.242,2.865,2.905,4.668C49.177,45.891,49.508,47.88,49.508,50.056z M42.24,50.056c0-2.953-0.65-5.252-1.95-6.897
		s-3.046-2.467-5.239-2.467c-1.416,0-2.662,0.367-3.741,1.101s-1.91,1.817-2.494,3.25s-0.875,3.104-0.875,5.014
		c0,1.892,0.288,3.546,0.862,4.96c0.574,1.415,1.397,2.498,2.467,3.25c1.069,0.752,2.33,1.127,3.78,1.127
		c2.192,0,3.939-0.827,5.239-2.48C41.59,55.259,42.24,52.974,42.24,50.056z"/>
	<path fill="#F4F5F5" d="M73.096,55.308c0,1.999-0.486,3.709-1.459,5.133c-0.973,1.424-2.41,2.503-4.311,3.236
		c-1.901,0.733-4.214,1.101-6.937,1.101c-2.6,0-4.828-0.398-6.685-1.194c-1.857-0.795-3.228-1.791-4.112-2.984
		c-0.885-1.194-1.327-2.392-1.327-3.594c0-0.796,0.283-1.477,0.849-2.042c0.566-0.566,1.282-0.849,2.148-0.849
		c0.76,0,1.344,0.186,1.751,0.557c0.407,0.372,0.796,0.894,1.167,1.565c0.743,1.292,1.631,2.255,2.666,2.891
		c1.035,0.637,2.445,0.956,4.231,0.956c1.45,0,2.639-0.323,3.567-0.968c0.929-0.646,1.393-1.384,1.393-2.216
		c0-1.273-0.482-2.202-1.446-2.785c-0.964-0.584-2.551-1.141-4.762-1.671c-2.493-0.619-4.523-1.269-6.088-1.95
		c-1.565-0.681-2.816-1.578-3.753-2.692c-0.938-1.114-1.406-2.484-1.406-4.111c0-1.45,0.434-2.821,1.3-4.112
		c0.867-1.291,2.144-2.321,3.833-3.091c1.688-0.769,3.727-1.154,6.114-1.154c1.874,0,3.559,0.195,5.054,0.583
		c1.494,0.389,2.741,0.912,3.74,1.565c0.999,0.654,1.76,1.379,2.281,2.175c0.521,0.795,0.783,1.574,0.783,2.334
		c0,0.832-0.278,1.512-0.836,2.042c-0.557,0.531-1.349,0.796-2.374,0.796c-0.743,0-1.375-0.212-1.897-0.636
		c-0.521-0.425-1.119-1.061-1.79-1.91c-0.549-0.707-1.194-1.273-1.937-1.698c-0.743-0.424-1.751-0.636-3.024-0.636
		c-1.309,0-2.396,0.278-3.263,0.835c-0.867,0.557-1.3,1.251-1.3,2.083c0,0.761,0.318,1.384,0.955,1.87
		c0.636,0.487,1.494,0.889,2.573,1.208c1.079,0.318,2.564,0.707,4.457,1.167c2.246,0.548,4.08,1.203,5.504,1.963
		c1.423,0.76,2.502,1.658,3.236,2.692C72.729,52.801,73.096,53.981,73.096,55.308z"/>
	<path fill="#F4F5F5" d="M99.761,55.812c0,0.902-0.27,1.866-0.809,2.892c-0.54,1.026-1.361,2.003-2.467,2.931
		s-2.498,1.676-4.178,2.242c-1.68,0.565-3.572,0.849-5.677,0.849c-4.474,0-7.967-1.304-10.478-3.913
		c-2.512-2.608-3.767-6.105-3.767-10.491c0-2.971,0.575-5.597,1.725-7.878c1.149-2.281,2.812-4.045,4.987-5.292
		c2.176-1.247,4.775-1.87,7.799-1.87c1.874,0,3.594,0.274,5.16,0.822c1.564,0.549,2.891,1.256,3.979,2.123
		c1.087,0.867,1.918,1.791,2.493,2.772c0.574,0.981,0.862,1.897,0.862,2.746c0,0.867-0.323,1.601-0.969,2.202
		c-0.646,0.601-1.428,0.901-2.347,0.901c-0.602,0-1.101-0.154-1.499-0.464c-0.397-0.31-0.845-0.81-1.339-1.499
		c-0.884-1.344-1.809-2.352-2.772-3.024c-0.963-0.672-2.188-1.008-3.674-1.008c-2.14,0-3.865,0.836-5.173,2.507
		c-1.309,1.671-1.962,3.957-1.962,6.857c0,1.362,0.168,2.613,0.504,3.754c0.336,1.14,0.822,2.113,1.458,2.917
		c0.637,0.805,1.406,1.415,2.308,1.831s1.892,0.624,2.971,0.624c1.45,0,2.692-0.336,3.727-1.008c1.035-0.672,1.95-1.698,2.745-3.077
		c0.442-0.813,0.919-1.45,1.433-1.91s1.141-0.69,1.884-0.69c0.884,0,1.618,0.336,2.202,1.008
		C99.469,54.336,99.761,55.052,99.761,55.812z"/>
	<path fill="#F4F5F5" d="M134.434,54.326v6.049c0,1.468-0.345,2.569-1.034,3.302c-0.69,0.733-1.565,1.101-2.627,1.101
		c-1.043,0-1.9-0.371-2.572-1.114c-0.672-0.743-1.009-1.839-1.009-3.289V40.214c0-3.253,1.176-4.881,3.528-4.881
		c1.203,0,2.069,0.38,2.6,1.141c0.53,0.761,0.822,1.883,0.875,3.369c0.867-1.486,1.755-2.608,2.667-3.369
		c0.911-0.76,2.126-1.141,3.647-1.141c1.521,0,2.998,0.38,4.43,1.141c1.432,0.761,2.148,1.769,2.148,3.024
		c0,0.885-0.305,1.614-0.915,2.189c-0.61,0.575-1.269,0.862-1.976,0.862c-0.265,0-0.907-0.164-1.923-0.491
		c-1.017-0.327-1.914-0.491-2.692-0.491c-1.062,0-1.928,0.279-2.6,0.836c-0.672,0.557-1.194,1.384-1.565,2.48
		c-0.371,1.097-0.627,2.401-0.77,3.913C134.505,50.308,134.434,52.151,134.434,54.326z"/>
	<g>
		<path fill="#F4F5F5" d="M119.349,60.693c-1.751,1.362-3.445,2.384-5.08,3.064c-1.636,0.681-3.471,1.021-5.505,1.021
			c-1.856,0-3.488-0.368-4.894-1.101c-1.406-0.733-2.489-1.729-3.25-2.984c-0.761-1.255-1.141-2.617-1.141-4.085
			c0-1.98,0.628-3.669,1.884-5.066c1.255-1.396,2.979-2.334,5.172-2.812c0.46-0.106,1.601-0.345,3.422-0.716
			c1.821-0.372,3.382-0.712,4.682-1.021c1.299-0.309,2.709-0.685,4.231-1.127c-0.088-1.91-0.474-3.312-1.154-4.205
			c-0.681-0.893-2.092-1.339-4.231-1.339c-1.84,0-3.224,0.256-4.152,0.769c-0.928,0.513-1.724,1.283-2.387,2.308
			c-0.663,1.026-1.131,1.702-1.406,2.029s-0.862,0.491-1.764,0.491c-0.814,0-1.517-0.261-2.109-0.783
			c-0.592-0.521-0.888-1.189-0.888-2.002c0-1.273,0.451-2.511,1.353-3.714s2.308-2.193,4.218-2.971
			c1.91-0.778,4.288-1.167,7.136-1.167c3.183,0,5.686,0.376,7.506,1.128c1.822,0.751,3.108,1.941,3.86,3.567
			c0.751,1.627,1.128,3.785,1.128,6.473c0,1.698-0.005,3.14-0.014,4.324c-0.009,1.186-0.022,2.503-0.04,3.953
			c0,1.362,0.023,2.835,0.023,4.257c0,1.544-0.858,1.939-0.858,2.363c0,0.742-0.311,0.551-1.009,1.161
			c-0.699,0.61-0.529,0.051-1.413,0.051c-0.742,0-0.289,1.873-1.014,1.174S120.162,62.019,119.349,60.693z M118.872,50.214
			c-1.061,0.39-2.604,0.801-4.629,1.234c-2.024,0.434-3.427,0.751-4.205,0.955c-0.778,0.204-1.521,0.601-2.228,1.194
			c-0.708,0.592-1.062,1.419-1.062,2.48c0,1.097,0.415,2.03,1.247,2.799c0.831,0.769,1.919,1.153,3.263,1.153
			c1.432,0,2.754-0.313,3.966-0.941c1.211-0.627,2.1-1.437,2.666-2.427c0.654-1.096,0.981-2.9,0.981-5.412V50.214z"/>
		<g>
			<defs>
				<rect id="SVGID_5_" x="115.656" y="52.541" width="13.677" height="13.677"/>
			</defs>
			<clipPath id="SVGID_6_">
				<use xlink:href="#SVGID_5_"  overflow="visible"/>
			</clipPath>
			<path clip-path="url(#SVGID_6_)" fill="#F4F5F5" d="M125.913,54.687v5.854c0,1.421-0.334,2.487-1.001,3.197
				c-0.667,0.709-1.516,1.065-2.542,1.065c-1.01,0-1.84-0.359-2.491-1.078c-0.651-0.719-0.976-1.78-0.976-3.184V41.027
				c0-3.149,1.139-4.724,3.416-4.724c1.164,0,2.002,0.369,2.516,1.104c0.514,0.736,0.796,1.823,0.847,3.261
				c0.838-1.438,1.699-2.524,2.581-3.261c0.882-0.735,2.059-1.104,3.531-1.104c1.472,0,2.901,0.369,4.287,1.104
				c1.387,0.736,2.08,1.712,2.08,2.927c0,0.856-0.295,1.562-0.886,2.119c-0.591,0.557-1.229,0.834-1.913,0.834
				c-0.256,0-0.877-0.158-1.861-0.475c-0.984-0.316-1.853-0.475-2.605-0.475c-1.027,0-1.866,0.27-2.517,0.809
				c-0.65,0.539-1.155,1.339-1.516,2.4c-0.359,1.062-0.607,2.324-0.744,3.787C125.981,50.797,125.913,52.581,125.913,54.687z"/>
		</g>
	</g>
</g>
</svg>
